<?xml version="1.0" encoding="utf-8"?>
<svg xmlns="http://www.w3.org/2000/svg" viewBox="516.1987 58.4006 320.6612 320.7416" width="320.661px" height="320.742px">
  <path d="M 726.607 79.314 C 727.69 79.821 743.389 85.169 743.577 88.544 C 746.206 91.186 746.206 91.186 749.577 92.544 C 750.366 92.336 755.948 97.713 758.385 99.092 C 763.853 103.752 769.216 111.614 770.048 112.491 C 774.242 117.06 778.167 120.823 780.15 126.772 C 781.14 127.102 818.47 214.396 798.048 250.099 C 711.957 400.612 594.068 327.725 591.751 326.217 C 558.344 304.474 526.301 271.253 521.604 232.041 C 517.148 194.84 541.898 129.675 543.581 127.851 C 544.241 127.851 559.993 107.313 560.267 106.709 C 568.399 98.155 608.645 71.07 613.224 69.795 C 614.164 69.531 693.685 61.717 726.607 79.314 Z M 621.003 99.896 C 619.347 101.598 619.347 101.598 618.577 104.544 C 619.101 104.374 619.626 104.204 620.167 104.028 C 625.815 102.262 631.508 100.783 637.264 99.419 C 637.976 99.249 638.689 99.078 639.422 98.902 C 660.551 93.969 681.508 96.203 701.698 103.653 C 704.484 104.879 704.484 104.879 706.577 103.544 C 702.009 97.413 697.633 94.415 690.577 91.544 C 689.506 91.097 689.506 91.097 688.413 90.642 C 667.48 83.208 637.885 84.446 621.003 99.896 Z M 576.632 132.189 C 562.704 139.652 554.858 153.65 550.295 168.315 C 546.434 181.447 543.321 197.752 549.6 210.646 C 550.536 212.311 551.549 213.934 552.577 215.544 C 553.237 215.544 553.897 215.544 554.577 215.544 C 554.542 214.225 554.507 212.907 554.471 211.548 C 553.931 182.411 561.529 154.488 581.577 132.544 C 578.753 131.27 578.753 131.27 576.632 132.189 Z M 743.577 131.544 C 743.917 131.971 744.257 132.397 744.608 132.837 C 757.583 149.573 766.036 167.688 769.577 188.544 C 769.773 189.655 769.969 190.766 770.171 191.911 C 770.697 196.617 770.684 201.251 770.639 205.982 C 770.635 206.904 770.63 207.826 770.626 208.776 C 770.614 211.032 770.598 213.288 770.577 215.544 C 776.923 209.821 777.956 204 778.897 195.728 C 779.651 177.666 772.681 159.152 762.577 144.544 C 761.917 143.554 761.257 142.564 760.577 141.544 C 759.917 141.544 757.917 139.564 757.577 138.544 C 756.917 138.544 755.577 137.224 755.577 136.544 C 754.144 135.703 752.705 134.871 751.264 134.044 C 750.464 133.58 749.663 133.116 748.839 132.638 C 746.545 131.326 746.545 131.326 743.577 131.544 Z M 567.577 258.544 C 566.646 268.222 570.557 276.322 576.452 283.857 C 577.807 285.436 579.181 287 580.577 288.544 C 581.109 289.158 581.642 289.771 582.19 290.403 C 593.489 302.628 610.776 312.331 627.378 313.79 C 631.868 313.903 635.526 313.704 639.577 311.544 C 636.556 309.53 634.422 308.859 630.952 307.919 C 606.305 300.462 585.566 285.246 571.577 263.544 C 570.264 261.861 568.943 260.184 567.577 258.544 Z M 755.577 260.544 C 753.697 262.949 751.91 265.373 750.139 267.857 C 733.476 290.508 712.23 302.944 685.577 310.544 C 686.365 312.704 686.365 312.704 688.358 313.153 C 703.308 315.785 717.873 309.599 730.003 301.251 C 742.085 292.522 754.348 281.131 756.952 265.919 C 757.182 264.13 757.398 262.339 757.577 260.544 C 756.917 260.544 756.257 260.544 755.577 260.544 Z" fill="#D9E3E8" transform="matrix(1, 0, 0, 1, 0, -5.684341886080802e-14)"/>
  <path d="M 731.577 75.544 C 732.66 76.074 733.742 76.604 734.858 77.15 C 735.858 77.651 736.859 78.152 737.889 78.669 C 738.772 79.105 739.655 79.54 740.565 79.989 C 742.577 81.544 742.577 81.544 743.432 84.107 C 743.577 86.544 743.577 86.544 742.577 88.419 C 739.524 90.136 736.819 89.425 733.577 88.544 C 730.445 87.154 727.494 85.48 724.514 83.794 C 692.76 66.494 656.596 64.561 622.178 74.4 C 585.302 86.118 557.812 111.344 539.952 145.232 C 524.382 177.085 522.181 213.908 533.46 247.482 C 534.013 248.997 534.013 248.997 534.577 250.544 C 535.007 251.74 535.438 252.937 535.882 254.169 C 547.023 284.05 569.376 309.564 597.608 324.492 C 599.577 325.544 599.577 325.544 601.547 326.809 C 611.433 332.385 622.62 331.326 633.62 331.314 C 635.875 331.325 638.13 331.337 640.386 331.35 C 645.102 331.37 649.818 331.372 654.534 331.361 C 660.538 331.349 666.54 331.396 672.544 331.46 C 677.2 331.501 681.856 331.504 686.512 331.498 C 688.724 331.5 690.935 331.515 693.146 331.543 C 707.393 331.703 717.46 330.184 729.577 322.544 C 730.788 321.837 732.002 321.136 733.219 320.44 C 764.401 302.412 784.993 271.98 794.643 237.763 C 797.359 226.531 797.817 215.484 797.827 203.982 C 797.828 203.267 797.828 202.552 797.829 201.816 C 797.813 191.42 797.413 181.632 794.577 171.544 C 794.26 170.303 793.943 169.061 793.616 167.782 C 788.959 150.63 780.766 134.333 769.577 120.544 C 768.845 119.637 768.845 119.637 768.098 118.712 C 762.86 112.283 757.684 106.065 751.003 101.071 C 749.046 98.976 748.767 97.375 748.577 94.544 C 749.237 93.554 749.897 92.564 750.577 91.544 C 756.649 91.831 759.393 94.551 763.514 98.607 C 764.44 99.495 764.44 99.495 765.383 100.4 C 772.322 107.122 785.557 125.204 786.577 125.544 C 787.986 127.905 789.208 130.197 790.389 132.669 C 790.74 133.39 791.09 134.11 791.451 134.853 C 809.088 171.643 813.65 210.811 801.475 250.099 C 800.617 252.954 799.847 255.575 799.577 258.544 C 801.268 261.986 801.268 261.986 804.577 263.544 C 805.465 263.415 806.353 263.286 807.268 263.153 C 812.638 263.787 815.115 267.633 818.577 271.544 C 819.263 272.288 819.948 273.032 820.655 273.798 C 829.815 283.85 837.097 292.899 836.854 307.173 C 836.232 312.495 834.333 317.507 832.577 322.544 C 832.352 323.19 832.127 323.836 831.895 324.502 C 829.095 332.46 826.01 340.077 822.053 347.544 C 820.495 350.579 820.495 350.579 819.288 354.044 C 815.956 363.085 811.337 370.012 802.577 374.544 C 790.494 380.055 777.612 379.101 764.633 379.046 C 762.112 379.05 759.591 379.055 757.07 379.062 C 750.963 379.075 744.855 379.069 738.747 379.053 C 731.632 379.037 724.516 379.04 717.4 379.044 C 704.711 379.049 692.021 379.035 679.331 379.011 C 667.017 378.987 654.703 378.98 642.389 378.99 C 628.962 379.001 615.535 379.003 602.109 378.989 C 600.679 378.987 599.249 378.986 597.819 378.984 C 597.115 378.984 596.412 378.983 595.687 378.982 C 590.725 378.977 585.763 378.979 580.801 378.983 C 574.135 378.989 567.47 378.978 560.804 378.957 C 558.352 378.951 555.9 378.951 553.448 378.955 C 550.115 378.961 546.782 378.949 543.449 378.932 C 541.977 378.941 541.977 378.941 540.475 378.95 C 539.587 378.941 538.699 378.933 537.785 378.924 C 537.015 378.923 536.245 378.922 535.452 378.921 C 533.577 378.544 533.577 378.544 531.577 375.544 C 531.316 373.647 531.316 373.647 531.302 371.487 C 531.293 370.676 531.283 369.866 531.273 369.03 C 531.274 368.158 531.275 367.286 531.276 366.388 C 531.272 365.489 531.267 364.59 531.263 363.665 C 531.257 361.765 531.257 359.865 531.261 357.965 C 531.264 355.055 531.241 352.146 531.216 349.235 C 531.213 347.39 531.213 345.545 531.214 343.7 C 531.204 342.828 531.195 341.956 531.186 341.058 C 531.192 340.247 531.198 339.436 531.205 338.601 C 531.204 337.888 531.203 337.175 531.203 336.441 C 531.691 333.967 532.608 333.076 534.577 331.544 C 537.089 331.156 537.089 331.156 540.049 331.146 C 541.114 331.142 542.178 331.138 543.274 331.134 C 544.94 331.151 544.94 331.151 546.639 331.169 C 547.754 331.157 548.868 331.146 550.016 331.134 C 551.079 331.138 552.142 331.142 553.237 331.146 C 554.701 331.151 554.701 331.151 556.194 331.156 C 556.981 331.284 557.767 331.412 558.577 331.544 C 559.237 332.534 559.897 333.524 560.577 334.544 C 562.771 335.124 562.771 335.124 565.202 335.232 C 566.428 335.33 566.428 335.33 567.678 335.431 C 568.305 335.468 568.931 335.506 569.577 335.544 C 570.237 334.224 570.897 332.904 571.577 331.544 C 577.187 331.214 582.797 330.884 588.577 330.544 C 586.329 329.08 584.081 327.615 581.764 326.107 C 548.52 304.115 527.575 270.903 518.862 232.384 C 511.664 195.868 519.2 155.91 539.727 124.801 C 542.198 121.264 544.867 117.9 547.577 114.544 C 548.327 113.568 549.077 112.592 549.85 111.587 C 553.894 106.368 553.894 106.368 555.577 104.544 C 556.237 104.544 573.506 88.283 581.824 82.763 C 583.752 81.463 583.752 81.463 586.069 79.439 C 589.329 76.976 592.755 75.535 596.514 73.982 C 597.899 73.398 599.283 72.814 600.667 72.228 C 601.338 71.945 602.01 71.663 602.702 71.371 C 604.316 70.659 605.886 69.848 607.444 69.021 C 611.751 66.991 616.185 65.757 620.764 64.482 C 621.704 64.218 622.644 63.954 623.612 63.682 C 659.552 53.747 698.712 57.899 731.577 75.544 Z M 773.452 298.357 C 771.251 300.443 765.026 307.046 762.952 309.669 C 758.452 314.948 753.305 318.687 747.577 322.544 C 746.731 323.114 745.886 323.684 745.014 324.271 C 743.531 325.261 742.043 326.245 740.549 327.22 C 738.509 328.59 736.543 330.069 734.577 331.544 C 758.337 331.544 782.097 331.544 806.577 331.544 C 806.577 327.3 806.532 326.989 803.889 324.107 C 803.06 323.194 803.06 323.194 802.214 322.263 C 800.04 319.98 797.833 317.746 795.577 315.544 C 790.889 310.955 786.381 306.296 782.12 301.306 C 780.657 299.635 779.236 298.021 777.577 296.544 C 775.365 296.328 775.365 296.328 773.452 298.357 Z" fill="#030303" transform="matrix(1, 0, 0, 1, 0, -5.684341886080802e-14)"/>
  <path d="M 709.64 91.419 C 714.429 96.014 717.767 101.539 718.327 108.232 C 717.444 122.524 705.613 134.992 695.675 144.247 C 690.346 148.761 684.884 152.545 678.577 155.544 C 677.409 156.132 677.409 156.132 676.218 156.732 C 667.288 160.827 659.171 160.753 649.952 157.482 C 632.428 150.025 618.095 135.4 609.577 118.544 C 607.339 112.628 606.223 107.305 608.417 101.212 C 614.146 89.89 624.582 84.345 636.179 80.282 C 660.189 73.115 689.474 75.739 709.64 91.419 Z M 621.003 99.896 C 619.347 101.598 619.347 101.598 618.577 104.544 C 619.102 104.374 619.627 104.204 620.167 104.028 C 625.816 102.262 631.509 100.783 637.265 99.419 C 637.977 99.249 638.689 99.078 639.423 98.902 C 660.552 93.969 681.509 96.203 701.698 103.653 C 704.484 104.879 704.484 104.879 706.577 103.544 C 702.009 97.413 697.634 94.415 690.577 91.544 C 689.506 91.097 689.506 91.097 688.413 90.642 C 667.481 83.208 637.885 84.446 621.003 99.896 Z" fill="#090A0A" transform="matrix(1, 0, 0, 1, 0, -5.684341886080802e-14)"/>
  <path d="M 753.991 124.083 C 758.847 126.827 762.684 130.591 766.577 134.544 C 767.143 135.111 767.709 135.678 768.292 136.263 C 781.713 150.787 788.167 171.741 787.952 191.169 C 787.963 192.223 787.975 193.278 787.987 194.364 C 787.949 204.483 785.917 213.464 779.577 221.544 C 773.097 227.549 767.604 228.155 758.94 227.915 C 741.343 226.822 723.45 215.149 711.702 202.606 C 705.197 194.828 703.137 186.251 703.237 176.306 C 704.798 159.031 714.425 139.985 726.975 128.314 C 735.716 121.272 743.551 119.554 753.991 124.083 Z M 743.577 131.544 C 743.917 131.971 744.257 132.397 744.608 132.837 C 757.583 149.573 766.036 167.688 769.577 188.544 C 769.773 189.655 769.969 190.766 770.171 191.911 C 770.697 196.617 770.684 201.251 770.639 205.981 C 770.635 206.904 770.63 207.826 770.626 208.776 C 770.614 211.032 770.598 213.288 770.577 215.544 C 776.923 209.821 777.956 204 778.897 195.728 C 779.651 177.666 772.68 159.152 762.577 144.544 C 761.917 143.554 761.257 142.564 760.577 141.544 C 759.917 141.544 757.917 139.564 757.577 138.544 C 756.917 138.544 746.545 131.326 743.577 131.544 Z" fill="#09090A" transform="matrix(1, 0, 0, 1, 0, -5.684341886080802e-14)"/>
  <path d="M 639.796 243.376 C 652.073 255.724 655.754 274.573 655.952 291.294 C 655.966 292.157 655.98 293.021 655.995 293.91 C 655.932 302.241 654.318 311.215 648.577 317.544 C 640.687 324.081 630.579 323.454 620.894 322.788 C 615.726 322.244 611.267 320.711 606.577 318.544 C 605.09 317.89 605.09 317.89 603.573 317.224 C 582.876 307.549 566.218 291.354 558.202 269.857 C 556.936 263.145 556.734 257.526 560.198 251.454 C 568.287 240.249 581.867 236.417 594.878 234.142 C 610.798 232.017 627.004 232.814 639.796 243.376 Z M 567.577 258.544 C 566.647 268.222 570.557 276.322 576.452 283.857 C 577.808 285.436 579.181 287 580.577 288.544 C 581.109 289.158 581.642 289.771 582.19 290.403 C 593.49 302.628 610.776 312.331 627.378 313.79 C 631.868 313.903 635.527 313.704 639.577 311.544 C 636.556 309.53 634.422 308.859 630.952 307.919 C 606.305 300.462 585.567 285.246 571.577 263.544 C 570.264 261.861 568.943 260.184 567.577 258.544 Z" fill="#080909" transform="matrix(1, 0, 0, 1, 0, -5.684341886080802e-14)"/>
  <path d="M 759.577 245.544 C 763.193 249.064 766.422 252.303 766.78 257.485 C 766.994 273.988 760.77 285.926 749.362 297.884 C 734.353 312.219 714.36 324.083 693.01 323.759 C 685.677 323.111 679.618 320.945 674.577 315.544 C 666.999 303.532 668.091 286.406 670.764 272.919 C 674.301 259.084 680.123 246.284 692.413 238.36 C 711.093 227.953 742.837 233.097 759.577 245.544 Z M 755.577 260.544 C 753.697 262.949 751.91 265.373 750.139 267.857 C 733.476 290.508 712.23 302.944 685.577 310.544 C 686.365 312.704 686.365 312.704 688.358 313.153 C 703.308 315.785 717.873 309.599 730.003 301.251 C 742.085 292.522 754.348 281.131 756.952 265.919 C 757.182 264.13 757.398 262.339 757.577 260.544 C 756.917 260.544 756.257 260.544 755.577 260.544 Z" fill="#090909" transform="matrix(1, 0, 0, 1, 0, -5.684341886080802e-14)"/>
  <path d="M 590.515 122.919 C 604.216 130.697 611.758 145.559 617.577 159.544 C 617.92 160.329 618.263 161.114 618.616 161.923 C 621.988 170.982 622.72 184.613 619.015 193.669 C 617.898 195.638 617.898 195.638 616.577 197.544 C 616.08 198.297 615.582 199.05 615.07 199.825 C 611.231 205.182 606.532 210.535 600.577 213.544 C 596.157 213.124 596.157 213.124 594.577 211.544 C 594.077 208.857 594.077 208.857 594.577 205.544 C 596.634 203.159 598.923 201.238 601.577 199.544 C 602.237 199.544 602.897 199.544 603.577 199.544 C 603.825 199.008 604.072 198.472 604.327 197.919 C 605.577 195.544 605.577 195.544 607.64 192.482 C 612.144 185.653 611.421 177.066 609.964 169.259 C 606.668 157.54 600.871 146.46 592.577 137.544 C 592.577 136.884 592.577 136.224 592.577 135.544 C 581.989 145.491 574.835 157.582 569.765 171.107 C 569.475 171.873 569.185 172.64 568.886 173.43 C 565.132 183.881 564.25 194.19 563.952 205.232 C 563.914 206.422 563.875 207.612 563.835 208.839 C 563.742 211.741 563.656 214.642 563.577 217.544 C 565.176 217.237 566.773 216.926 568.37 216.614 C 569.705 216.355 569.705 216.355 571.066 216.091 C 573.741 215.558 573.741 215.558 576.89 214.419 C 579.663 213.516 581.684 213.223 584.577 213.544 C 586.577 215.544 586.577 215.544 587.015 217.982 C 586.577 220.544 586.577 220.544 584.515 222.169 C 576.606 225.871 570.377 227.735 561.64 227.857 C 560.95 227.886 560.259 227.915 559.548 227.944 C 553.445 228.02 550.135 225.934 545.784 221.868 C 535.32 209.587 536.679 193.852 537.577 178.544 C 538.241 173.321 539.732 168.468 541.577 163.544 C 541.928 162.53 542.279 161.515 542.64 160.47 C 548.753 144.232 558.746 130.882 574.077 122.669 C 579.763 120.841 584.937 120.546 590.515 122.919 Z M 576.632 132.189 C 562.704 139.652 554.859 153.65 550.295 168.315 C 546.434 181.447 543.322 197.752 549.601 210.646 C 550.537 212.311 551.549 213.934 552.577 215.544 C 553.237 215.544 553.897 215.544 554.577 215.544 C 554.543 214.225 554.508 212.907 554.472 211.548 C 553.931 182.411 561.529 154.488 581.577 132.544 C 578.754 131.27 578.754 131.27 576.632 132.189 Z" fill="#080808" transform="matrix(1, 0, 0, 1, 0, -5.684341886080802e-14)"/>
  <path d="M 590.577 135.544 C 591.237 135.544 591.897 135.544 592.577 135.544 C 598.302 141.709 602.444 148.723 606.014 156.294 C 606.344 156.99 606.673 157.686 607.013 158.403 C 611.294 167.847 613.913 178.824 610.819 189.048 C 609.87 191.018 608.835 192.758 607.577 194.544 C 606.711 195.843 606.711 195.843 605.827 197.169 C 603.779 199.33 601.888 200.748 599.452 202.419 C 595.399 205.308 594.763 207.708 593.577 212.544 C 591.077 214.232 591.077 214.232 588.577 215.544 C 587.249 217.611 587.249 217.611 586.577 219.544 C 585.917 217.894 585.257 216.244 584.577 214.544 C 580.661 214.949 577.238 215.315 573.514 216.607 C 570.081 217.702 567.161 217.607 563.577 217.544 C 562.945 188.81 562.945 188.81 566.577 177.544 C 566.776 176.919 566.974 176.294 567.179 175.65 C 572.063 160.627 579.415 146.872 590.577 135.544 Z" fill="#8F9AA4" transform="matrix(1, 0, 0, 1, 0, -5.684341886080802e-14)"/>
  <path d="M 632.628 249.774 C 641.41 257.34 645.326 272.225 646.456 283.368 C 647.172 296.228 647.172 296.228 645.577 301.544 C 624.763 300.787 604.804 288.026 590.577 273.544 C 584.811 267.142 579.436 260.271 575.577 252.544 C 576.577 249.544 576.577 249.544 578.511 248.446 C 579.75 247.968 579.75 247.968 581.015 247.481 C 581.818 247.16 582.621 246.839 583.448 246.508 C 598.777 241.782 619.118 239.897 632.628 249.774 Z" fill="#5D6A73" transform="matrix(1, 0, 0, 1, 0, -5.684341886080802e-14)"/>
  <path d="M 705.577 114.544 C 705.037 118.585 703.901 120.842 701.327 123.982 C 700.744 124.702 700.162 125.423 699.561 126.165 C 698.906 126.95 698.252 127.735 697.577 128.544 C 696.802 129.524 696.027 130.503 695.229 131.513 C 688.368 139.719 676.942 148.422 666.268 150.048 C 653.436 150.709 644.584 145.035 635.116 136.903 C 629.098 131.311 623.116 125.064 619.577 117.544 C 619.577 116.554 619.577 115.564 619.577 114.544 C 648.329 102.531 676.85 102.16 705.577 114.544 Z" fill="#8E99A4" transform="matrix(1, 0, 0, 1, 0, -5.684341886080802e-14)"/>
  <path d="M 732.577 136.544 C 743.232 141.282 750.106 155.35 754.378 165.732 C 760.356 181.322 765.176 201.02 760.577 217.544 C 747.579 219.055 734.66 209.821 724.827 202.294 C 718.448 196.829 714.261 192.197 713.01 183.692 C 711.934 167.326 719.033 153.385 728.577 140.544 C 729.876 139.178 731.198 137.83 732.577 136.544 Z" fill="#8E99A4" transform="matrix(1, 0, 0, 1, 0, -5.684341886080802e-14)"/>
  <path d="M 715.202 243.294 C 716.084 243.302 716.966 243.309 717.875 243.317 C 729.537 243.507 739.161 245.075 749.577 250.544 C 744.737 267.335 727.207 281.982 712.538 290.423 C 702.687 295.82 691.037 301.907 679.577 301.544 C 675.18 288.355 679.651 271.546 685.452 259.536 C 689.449 252.457 693.78 247.23 701.667 244.458 C 706.161 243.23 710.569 243.242 715.202 243.294 Z" fill="#8E99A4" transform="matrix(1, 0, 0, 1, 0, -5.684341886080802e-14)"/>
  <path d="M 541.577 140.544 C 542.917 144.213 542.196 146.27 540.827 149.857 C 538.299 156.986 536.9 164.109 535.577 171.544 C 535.405 172.486 535.233 173.427 535.056 174.397 C 530.231 206.112 538.619 240.723 555.983 267.482 C 557.416 269.645 557.416 269.645 559.577 270.544 C 560.385 272.183 561.124 273.857 561.827 275.544 C 570.734 295.612 588.163 310.417 608.452 318.357 C 614.717 320.689 620.15 321.747 626.827 322.107 C 627.944 322.171 627.944 322.171 629.085 322.237 C 630.915 322.343 632.746 322.444 634.577 322.544 C 634.577 322.874 634.577 323.204 634.577 323.544 C 632.267 323.874 629.957 324.204 627.577 324.544 C 630.305 325.359 633.034 326.171 635.764 326.982 C 636.533 327.212 637.302 327.442 638.094 327.679 C 641.902 328.806 645.658 329.861 649.577 330.544 C 649.577 330.874 649.577 331.204 649.577 331.544 C 644.316 331.745 639.057 331.888 633.793 331.983 C 632.011 332.023 630.228 332.077 628.446 332.148 C 615.043 332.661 605.996 330.608 594.577 323.544 C 593.515 322.916 592.454 322.288 591.36 321.64 C 560.862 303.325 538.662 273.215 529.612 238.884 C 528.847 235.448 528.19 232.01 527.577 228.544 C 527.372 227.546 527.167 226.549 526.956 225.521 C 521.901 198.401 526.625 164.058 541.577 140.544 Z" fill="#B4BEC8" transform="matrix(1, 0, 0, 1, 0, -5.684341886080802e-14)"/>
  <path d="M 590.577 135.544 C 591.237 135.544 591.897 135.544 592.577 135.544 C 598.302 141.709 602.444 148.723 606.014 156.294 C 606.344 156.99 606.673 157.686 607.013 158.403 C 611.294 167.847 613.913 178.824 610.819 189.048 C 609.87 191.018 608.835 192.758 607.577 194.544 C 606.711 195.843 606.711 195.843 605.827 197.169 C 603.779 199.33 601.888 200.748 599.452 202.419 C 595.399 205.308 594.763 207.708 593.577 212.544 C 591.077 214.232 591.077 214.232 588.577 215.544 C 587.249 217.611 587.249 217.611 586.577 219.544 C 585.917 217.894 585.257 216.244 584.577 214.544 C 580.661 214.949 577.238 215.315 573.514 216.607 C 570.081 217.702 567.161 217.607 563.577 217.544 C 563.073 194.659 560.55 174.559 576.577 154.544 C 578.071 158.43 577.011 161.015 575.702 164.857 C 573.349 171.809 572.447 178.234 572.479 185.571 C 572.482 186.857 572.486 188.143 572.489 189.468 C 572.497 190.806 572.506 192.144 572.514 193.482 C 572.519 194.847 572.524 196.212 572.528 197.577 C 572.54 200.9 572.556 204.222 572.577 207.544 C 589.718 200.959 589.718 200.959 601.878 187.806 C 605 177.707 602.243 167.63 597.577 158.544 C 595.381 154.781 593.012 151.144 590.565 147.54 C 589.036 145.235 587.723 143.051 586.577 140.544 C 587.857 138.837 589.195 137.17 590.577 135.544 Z" fill="#5D6A73" transform="matrix(1, 0, 0, 1, 0, -5.684341886080802e-14)"/>
  <path d="M 626.577 254.544 C 632.218 259.549 634.369 266.535 636.577 273.544 C 637.072 275.029 637.072 275.029 637.577 276.544 C 637.645 278.439 637.662 280.336 637.639 282.232 C 637.63 283.225 637.621 284.219 637.612 285.243 C 637.6 286.003 637.589 286.762 637.577 287.544 C 631.848 287.081 628.094 285.531 623.264 282.482 C 622.282 281.873 622.282 281.873 621.279 281.253 C 611.355 275.003 596.282 265.229 592.577 253.544 C 603.464 249.039 616.14 248.393 626.577 254.544 Z" fill="#8E99A4" transform="matrix(1, 0, 0, 1, 0, -5.684341886080802e-14)"/>
  <path d="M 715.202 243.294 C 716.084 243.302 716.966 243.309 717.875 243.317 C 729.537 243.507 739.161 245.075 749.577 250.544 C 748.764 253.482 748.764 253.482 747.577 256.544 C 743.901 257.769 743.025 257.161 739.514 255.732 C 728.295 251.499 714.106 248.663 702.452 252.982 C 694.652 257.246 691.778 265.696 689.323 273.763 C 687.545 280.391 687.453 286.733 687.577 293.544 C 693.986 293.141 699.874 292.083 706.034 290.263 C 708.534 289.556 711.024 289.021 713.577 288.544 C 710.816 291.987 708.238 294.256 704.286 295.934 C 703.57 296.242 702.092 296.931 701.354 297.248 C 687.647 303.041 687.138 301.769 679.577 301.544 C 675.18 288.355 679.651 271.546 685.452 259.536 C 689.449 252.457 693.78 247.23 701.667 244.458 C 706.161 243.23 710.569 243.242 715.202 243.294 Z" fill="#5D6A72" transform="matrix(1, 0, 0, 1, 0, -5.684341886080802e-14)"/>
  <path d="M 571.577 331.544 C 572.237 331.544 572.897 331.544 573.577 331.544 C 571.702 335.419 571.702 335.419 570.577 336.544 C 570.417 338.99 570.318 341.411 570.26 343.86 C 570.24 344.592 570.219 345.323 570.197 346.076 C 570.132 348.419 570.073 350.763 570.014 353.107 C 569.971 354.692 569.928 356.277 569.883 357.862 C 569.775 361.756 569.676 365.65 569.577 369.544 C 560.337 369.544 551.097 369.544 541.577 369.544 C 541.577 359.974 541.577 350.404 541.577 340.544 C 549.992 340.049 549.992 340.049 558.577 339.544 C 558.907 337.894 559.237 336.244 559.577 334.544 C 562.877 334.874 566.177 335.204 569.577 335.544 C 570.237 334.224 570.897 332.904 571.577 331.544 Z" fill="#6E862B" transform="matrix(1, 0, 0, 1, 0, -5.684341886080802e-14)"/>
  <path d="M 728.577 340.544 C 738.147 340.544 747.717 340.544 757.577 340.544 C 757.577 350.114 757.577 359.684 757.577 369.544 C 748.007 369.544 738.437 369.544 728.577 369.544 C 728.577 359.974 728.577 350.404 728.577 340.544 Z" fill="#6E8729" transform="matrix(1, 0, 0, 1, 0, -5.684341886080802e-14)"/>
  <path d="M 653.577 340.544 C 663.147 340.544 672.717 340.544 682.577 340.544 C 682.577 350.114 682.577 359.684 682.577 369.544 C 673.007 369.544 663.437 369.544 653.577 369.544 C 653.577 359.974 653.577 350.404 653.577 340.544 Z" fill="#6E8729" transform="matrix(1, 0, 0, 1, 0, -5.684341886080802e-14)"/>
  <path d="M 578.577 340.544 C 588.147 340.544 597.717 340.544 607.577 340.544 C 607.577 350.114 607.577 359.684 607.577 369.544 C 598.007 369.544 588.437 369.544 578.577 369.544 C 578.577 359.974 578.577 350.404 578.577 340.544 Z" fill="#6E8729" transform="matrix(1, 0, 0, 1, 0, -5.684341886080802e-14)"/>
  <path d="M 732.577 136.544 C 735.944 137.937 737.563 139.523 739.577 142.544 C 738.836 143.069 738.094 143.593 737.331 144.134 C 734.284 146.8 732.433 149.604 730.514 153.107 C 729.999 154.027 729.999 154.027 729.473 154.965 C 726.565 160.289 724.39 165.755 722.577 171.544 C 722.247 172.534 721.917 173.524 721.577 174.544 C 720.946 181.862 722.351 187.63 727.096 193.388 C 736.161 202.077 761.685 210.547 761.69 211.346 C 761.577 213.537 761.182 215.44 760.577 217.544 C 747.579 219.055 734.66 209.821 724.827 202.294 C 718.448 196.829 714.261 192.197 713.01 183.692 C 711.934 167.326 719.033 153.385 728.577 140.544 C 729.876 139.178 731.198 137.83 732.577 136.544 Z" fill="#5D6A73" transform="matrix(1, 0, 0, 1, 0, -5.684341886080802e-14)"/>
  <path d="M 626.577 112.544 C 628.155 114.45 628.155 114.45 629.827 117.044 C 637.137 127.827 646.445 138.155 659.577 141.544 C 668.072 142.337 673.977 138.44 680.577 133.544 C 681.534 132.863 681.534 132.863 682.51 132.169 C 689.172 127 693.945 119.491 698.577 112.544 C 700.887 113.204 703.197 113.864 705.577 114.544 C 705.037 118.585 703.901 120.842 701.327 123.982 C 700.453 125.062 700.453 125.062 699.561 126.165 C 698.906 126.95 698.252 127.735 697.577 128.544 C 696.802 129.524 696.027 130.503 695.229 131.513 C 688.368 139.719 676.942 148.422 666.268 150.048 C 653.436 150.709 644.584 145.035 635.116 136.903 C 629.098 131.311 623.116 125.064 619.577 117.544 C 619.577 116.554 619.577 115.564 619.577 114.544 C 622.224 113.083 623.471 112.544 626.577 112.544 Z" fill="#5D6A73" transform="matrix(1, 0, 0, 1, 0, -5.684341886080802e-14)"/>
  <path d="M 691.577 340.544 C 700.817 340.544 710.057 340.544 719.577 340.544 C 719.577 350.114 719.577 359.684 719.577 369.544 C 710.337 369.544 701.097 369.544 691.577 369.544 C 691.577 359.974 691.577 350.404 691.577 340.544 Z" fill="#6E8729" transform="matrix(1, 0, 0, 1, 0, -5.684341886080802e-14)"/>
  <path d="M 616.577 340.544 C 625.817 340.544 635.057 340.544 644.577 340.544 C 644.577 350.114 644.577 359.684 644.577 369.544 C 635.337 369.544 626.097 369.544 616.577 369.544 C 616.577 359.974 616.577 350.404 616.577 340.544 Z" fill="#6E8729" transform="matrix(1, 0, 0, 1, 0, -5.684341886080802e-14)"/>
  <path d="M 766.577 340.544 C 775.817 340.544 785.057 340.544 794.577 340.544 C 794.577 349.784 794.577 359.024 794.577 368.544 C 790.75 369.309 787.871 369.663 784.057 369.642 C 783.136 369.639 782.214 369.637 781.265 369.634 C 780.11 369.625 778.955 369.616 777.764 369.607 C 772.227 369.576 772.227 369.576 766.577 369.544 C 766.577 359.974 766.577 350.404 766.577 340.544 Z" fill="#6E8729" transform="matrix(1, 0, 0, 1, 0, -5.684341886080802e-14)"/>
  <path d="M 797.577 258.544 C 801.342 260.266 803.727 262.536 806.577 265.544 C 806.247 265.874 805.917 266.204 805.577 266.544 C 805.031 268.838 805.031 268.838 805.577 271.544 C 807.363 273.693 815.267 281.329 816.577 282.544 C 815.264 285.443 796.937 302.864 795.577 303.544 C 793.904 301.925 792.239 300.299 790.577 298.669 C 789.649 297.764 782.331 289.939 781.577 287.544 C 782.786 285.228 783.992 283.325 785.514 281.232 C 790.467 274.038 794.097 266.534 797.577 258.544 Z" fill="#6E8729" transform="matrix(1, 0, 0, 1, 0, -5.684341886080802e-14)"/>
  <path d="M 666.577 190.544 C 671.396 192.908 674.142 195.767 676.577 200.544 C 677.23 205.767 676.422 209.129 673.577 213.544 C 669.259 217.441 666.579 218.918 660.671 218.821 C 655.949 218.196 653.229 215.282 650.202 211.857 C 648.095 207.563 647.371 204.227 648.577 199.544 C 653.401 192.101 657.787 189.492 666.577 190.544 Z" fill="#060507" transform="matrix(1, 0, 0, 1, 0, -5.684341886080802e-14)"/>
  <path d="M 821.577 291.544 C 822.567 291.874 823.557 292.204 824.577 292.544 C 827.54 298.91 828.816 305.731 826.628 312.466 C 824.436 318.135 822.486 322.829 817.577 326.544 C 816.917 326.544 816.257 326.544 815.577 326.544 C 814.705 325.218 813.838 323.888 812.995 322.544 C 809.931 318.223 806.169 314.427 802.577 310.544 C 806.288 306.03 810.206 301.806 814.327 297.669 C 814.811 297.181 815.294 296.692 815.793 296.189 C 819.329 292.668 819.329 292.668 821.577 291.544 Z" fill="#6E8729" transform="matrix(1, 0, 0, 1, 0, -5.684341886080802e-14)"/>
  <path d="M 814.577 337.544 C 815.577 339.544 815.577 339.544 815.095 341.268 C 814.816 341.944 814.537 342.621 814.249 343.317 C 813.79 344.431 813.79 344.431 813.323 345.567 C 812.994 346.343 812.666 347.12 812.327 347.919 C 811.857 349.071 811.857 349.071 811.378 350.247 C 808.259 357.726 808.259 357.726 805.577 360.544 C 804.917 360.544 804.257 360.544 803.577 360.544 C 803.577 353.944 803.577 347.344 803.577 340.544 C 807.207 339.554 810.837 338.564 814.577 337.544 Z" fill="#6E8729" transform="matrix(1, 0, 0, 1, 0, -5.684341886080802e-14)"/>
  <path d="M 727.577 322.544 C 728.237 322.874 728.897 323.204 729.577 323.544 C 720.217 328.865 712.699 333.061 701.577 331.544 C 705.577 328.877 709.803 328.179 714.421 327.132 C 717.943 326.301 721.168 325.356 724.467 323.853 C 726.007 323.205 726.007 323.205 727.577 322.544 Z" fill="#B3BCC6" transform="matrix(1, 0, 0, 1, 0, -5.684341886080802e-14)"/>
  <path d="M 659.577 200.544 C 662.639 200.294 662.639 200.294 665.577 200.544 C 666.577 201.544 666.577 201.544 666.764 203.982 C 666.577 206.544 666.577 206.544 664.577 208.544 C 661.952 208.669 661.952 208.669 659.577 208.544 C 658.452 206.232 658.452 206.232 657.577 203.544 C 658.237 202.554 658.897 201.564 659.577 200.544 Z" fill="#EBEBEB" transform="matrix(1, 0, 0, 1, 0, -5.684341886080802e-14)"/>
  <path d="M 576.577 154.544 C 577.61 157.332 577.622 158.412 576.639 161.294 C 576.289 162.037 575.938 162.779 575.577 163.544 C 574.587 163.544 573.597 163.544 572.577 163.544 C 573.636 160.141 574.586 157.531 576.577 154.544 Z" fill="#57636B" transform="matrix(1, 0, 0, 1, 0, -5.684341886080802e-14)"/>
</svg>