<?xml version="1.0" encoding="UTF-8"?>
<svg version="1.1" xmlns="http://www.w3.org/2000/svg" width="541" height="544">
<path d="M0 0 C10.58233226 11.37600718 9.1875 24.12788588 9.1875 39.3671875 C69.9075 39.3671875 130.6275 39.3671875 193.1875 39.3671875 C193.1875 32.7671875 193.1875 26.1671875 193.1875 19.3671875 C195.26108833 9.32665455 199.5539431 1.2095744 208.1875 -4.6328125 C216.77695062 -9.55680159 224.85451999 -10.4658961 234.48828125 -8.41015625 C242.99018973 -5.96170504 249.30880164 -1.00041792 254.1875 6.3671875 C258.05045443 14.08221481 258.40012523 21.36369155 258.28125 29.81640625 C258.27448242 30.73788452 258.26771484 31.65936279 258.26074219 32.60876465 C258.24321508 34.86172857 258.21864346 37.11437763 258.1875 39.3671875 C259.04670044 39.35830505 259.90590088 39.34942261 260.7911377 39.340271 C268.91190187 39.2599245 277.0325314 39.1991215 285.1536026 39.15993881 C289.32816101 39.13911688 293.50238933 39.11089899 297.67675781 39.06542969 C301.70978513 39.02177784 305.74249614 38.99800987 309.77574158 38.98767853 C311.30985997 38.98032165 312.84396222 38.96595558 314.37794495 38.94426727 C323.6506972 38.81844892 330.77350867 38.88339931 338.2109375 45.04296875 C338.65695312 45.58308594 339.10296875 46.12320313 339.5625 46.6796875 C340.02398437 47.21207031 340.48546875 47.74445313 340.9609375 48.29296875 C344.40178553 54.11172767 344.47194832 60.17163078 344.42559814 66.73497009 C344.42715715 67.65818937 344.42871616 68.58140865 344.43032241 69.53260428 C344.43326976 72.61548258 344.42211869 75.69814816 344.41113281 78.78100586 C344.4106084 80.99563088 344.41104466 83.2102563 344.41236877 85.42488098 C344.41370122 90.18895852 344.40929863 94.95298447 344.40076447 99.71705437 C344.38837612 107.25155211 344.39533474 114.78595417 344.40618896 122.32044983 C344.42022257 132.88477522 344.43161602 143.4490941 344.43603516 154.01342773 C344.43646378 155.01816065 344.43646378 155.01816065 344.43690106 156.0431912 C344.44100674 166.90112849 344.42977456 177.75901089 344.41465965 188.6169359 C344.3996811 199.77724919 344.4080667 210.93742671 344.43527675 222.09772402 C344.44957537 228.35897557 344.45257918 234.61979237 344.42905426 240.88102531 C344.40693475 246.76880154 344.41242817 252.65590202 344.43903923 258.54365349 C344.44381103 260.70274081 344.43834121 262.86187906 344.42180824 265.02090836 C344.4007007 267.97223305 344.41657847 270.921177 344.44146729 273.87242126 C344.42651695 274.72369801 344.41156661 275.57497476 344.39616323 276.45204777 C344.49954244 282.26944176 346.09061771 285.36684693 349.90122771 289.75567538 C351.1875 291.3671875 351.1875 291.3671875 351.1875 293.3671875 C351.8475 293.3671875 352.5075 293.3671875 353.1875 293.3671875 C375.03465307 331.18703693 383.87270408 371.2123724 372.35229492 414.2890625 C368.70306521 427.07894217 362.75323883 438.84464088 356.1875 450.3671875 C355.66671875 451.31207031 355.1459375 452.25695312 354.609375 453.23046875 C354.14015625 453.93558594 353.6709375 454.64070313 353.1875 455.3671875 C352.5275 455.3671875 351.8675 455.3671875 351.1875 455.3671875 C350.94386719 456.09292969 350.70023437 456.81867188 350.44921875 457.56640625 C349.03235241 460.71158633 347.35634189 462.66923031 345 465.1796875 C342.18433836 468.2057404 339.44437321 471.24340032 336.8125 474.4296875 C332.50714858 479.39042029 327.35980858 483.35132157 322.1875 487.3671875 C321.45917969 487.94855469 320.73085938 488.52992188 319.98046875 489.12890625 C318.1875 490.3671875 318.1875 490.3671875 316.1875 490.3671875 C316.1875 491.0271875 316.1875 491.6871875 316.1875 492.3671875 C279.07805462 513.80396596 239.89500502 522.86231171 197.5 512.0546875 C184.97354121 508.6869467 173.67962948 503.26625397 162.1875 497.3671875 C162.1875 496.7071875 162.1875 496.0471875 162.1875 495.3671875 C161.6203125 495.26277344 161.053125 495.15835937 160.46875 495.05078125 C157.77728139 494.2442624 155.9806574 493.05400733 153.6875 491.4296875 C152.83028005 490.83197572 151.97306009 490.23426394 151.08986378 489.61843967 C148.1875 487.3671875 148.1875 487.3671875 145.90411663 484.82442379 C139.55070842 478.11689868 134.16092237 476.44185369 124.97236633 476.14686584 C120.37666686 476.07288105 115.7881971 476.12519904 111.19262695 476.18774414 C108.65376058 476.18561155 106.11489466 476.17903418 103.5760498 476.16836548 C98.12618364 476.15508293 92.67775906 476.17194886 87.22808266 476.2163868 C79.33948807 476.28039016 71.45167404 476.2857797 63.56286409 476.27679556 C50.74833045 476.26349449 37.93427019 476.29242498 25.11987305 476.3503418 C12.70125667 476.40633802 0.2827415 476.44989865 -12.13598633 476.47143555 C-12.90137687 476.472772 -13.66676742 476.47410844 -14.45535161 476.47548539 C-22.81743176 476.48964925 -31.17950976 476.49937962 -39.54160023 476.50453091 C-40.27716538 476.5049957 -41.01273053 476.5054605 -41.77058554 476.50593938 C-44.7115977 476.50775549 -47.65260973 476.50955079 -50.59362219 476.51081055 C-59.1876125 476.51464148 -67.78132111 476.53207175 -76.37521289 476.57430654 C-82.40216303 476.60364342 -88.42906194 476.61917785 -94.45607758 476.62997818 C-96.92437917 476.63714727 -99.39267203 476.64954797 -101.86091805 476.66759682 C-105.23350639 476.69170972 -108.60565416 476.69731899 -111.97831726 476.69862366 C-112.95167186 476.71029243 -113.92502646 476.7219612 -114.92787665 476.73398358 C-122.18844892 476.70781556 -128.40591696 475.48683917 -134.625 471.6171875 C-140.66341545 465.40624589 -141.93521946 458.97277254 -141.94392776 450.52734661 C-141.9459804 449.84862469 -141.94803303 449.16990276 -141.95014787 448.47061351 C-141.95581125 446.1917911 -141.95436144 443.91302925 -141.95294189 441.63420105 C-141.9555259 439.98566646 -141.95853916 438.3371325 -141.9619453 436.68859941 C-141.97001421 432.1547084 -141.97180481 427.62083322 -141.97254276 423.08693588 C-141.97439347 418.19861354 -141.98194084 413.31029941 -141.98867798 408.42198181 C-142.00226042 397.73200015 -142.0082857 387.04202223 -142.01268864 376.35203338 C-142.01545085 369.67852368 -142.01968814 363.00501544 -142.02419281 356.33150673 C-142.03638469 337.8578243 -142.0466846 319.38414303 -142.0500679 300.91045666 C-142.05028747 299.72810026 -142.05050703 298.54574386 -142.05073325 297.32755848 C-142.05095153 296.14236346 -142.05116981 294.95716844 -142.0513947 293.73605841 C-142.05183817 291.33437423 -142.05228473 288.93269004 -142.05273438 286.53100586 C-142.0529558 285.33968594 -142.05317723 284.14836602 -142.05340537 282.9209455 C-142.0573546 263.61113595 -142.0748128 244.30136411 -142.0980939 224.99156912 C-142.12179822 205.17095319 -142.13426931 185.35035619 -142.13543582 165.52972585 C-142.13635303 154.39931994 -142.14211694 143.26896317 -142.16025543 132.13857079 C-142.1756439 122.6622678 -142.18078423 113.18602915 -142.17251733 103.70971604 C-142.16860657 98.87433047 -142.16956126 94.03907452 -142.18357468 89.20370483 C-142.19628774 84.77658138 -142.19513893 80.3496853 -142.18298396 75.92256228 C-142.18102248 74.3216357 -142.1841262 72.72069316 -142.19282833 71.11978903 C-142.28640458 52.74015037 -142.28640458 52.74015037 -136.0625 45.5546875 C-135.61390625 45.01199219 -135.1653125 44.46929687 -134.703125 43.91015625 C-129.77910894 39.89158942 -124.80475638 38.99290763 -118.59204102 39.02661133 C-117.90826889 39.02617325 -117.22449677 39.02573517 -116.52000427 39.02528381 C-114.28516958 39.02735511 -112.05110804 39.05060562 -109.81640625 39.07421875 C-108.25699778 39.07982065 -106.69758399 39.08408794 -105.13816833 39.08708191 C-101.05279723 39.09848401 -96.96775094 39.1279106 -92.88250732 39.16119385 C-88.70622144 39.19199526 -84.52988259 39.20560868 -80.35351562 39.22070312 C-72.17302876 39.25278533 -63.9928049 39.30392478 -55.8125 39.3671875 C-55.82002792 38.79864044 -55.82755585 38.23009338 -55.83531189 37.64431763 C-55.86544917 35.03373558 -55.88397468 32.42319033 -55.90234375 29.8125 C-55.91438843 28.91829346 -55.92643311 28.02408691 -55.93884277 27.1027832 C-55.99898436 15.68634045 -53.63999285 6.82499277 -45.375 -1.53515625 C-31.56653599 -12.83873121 -13.15953383 -11.85492487 0 0 Z " fill="#000000" transform="translate(158.8125,22.6328125)"/>
<path d="M0 0 C150.48 0 300.96 0 456 0 C456 37.29 456 74.58 456 113 C453.36 111.02 450.72 109.04 448 107 C435.9968766 98.45313312 423.53909647 91.77028208 410 86 C409.97812622 84.50218994 409.97812622 84.50218994 409.95581055 82.97412109 C409.89759932 79.25013394 409.82036923 75.52673708 409.73754883 71.80322266 C409.70440637 70.1952476 409.67634146 68.58715919 409.65356445 66.97900391 C409.61982033 64.65999295 409.56749806 62.34201069 409.51171875 60.0234375 C409.50213387 58.95432632 409.50213387 58.95432632 409.49235535 57.86361694 C409.35663763 53.19949873 408.65234391 49.86555672 406 46 C401.01248772 42.41817968 396.12180839 42.56131983 390.21875 42.6015625 C388.82118469 42.59725723 388.82118469 42.59725723 387.39538574 42.59286499 C385.43204132 42.59083003 383.46867636 42.59632002 381.50537109 42.60888672 C378.50962756 42.62494838 375.51523309 42.6090186 372.51953125 42.58984375 C370.60676787 42.59182628 368.69400533 42.59567016 366.78125 42.6015625 C365.44507629 42.59245346 365.44507629 42.59245346 364.08190918 42.5831604 C358.98137159 42.64050755 355.40682232 43.14435507 351 46 C346.70060971 51.51862037 347.43923679 58.69053985 347.3125 65.375 C347.27833984 66.58800781 347.24417969 67.80101562 347.20898438 69.05078125 C347.12677625 72.03376181 347.05753474 75.01645842 347 78 C346.36610352 78.13051758 345.73220703 78.26103516 345.07910156 78.39550781 C329.33554772 81.57486779 329.33554772 81.57486779 314.01171875 86.30078125 C312 87 312 87 310 87 C309.97812622 85.50218994 309.97812622 85.50218994 309.95581055 83.97412109 C309.89759932 80.25013394 309.82036923 76.52673708 309.73754883 72.80322266 C309.70440637 71.1952476 309.67634146 69.58715919 309.65356445 67.97900391 C309.61982033 65.65999295 309.56749806 63.34201069 309.51171875 61.0234375 C309.50213387 59.95432632 309.50213387 59.95432632 309.49235535 58.86361694 C309.35622037 54.18515891 308.61435976 50.89885576 306 47 C300.9798687 42.41224282 296.4588746 42.41144801 290 42.46875 C289.04609375 42.4649231 288.0921875 42.46109619 287.109375 42.45715332 C285.09894755 42.45443964 283.08848447 42.46176263 281.078125 42.47851562 C278.00961213 42.49993291 274.94344048 42.47869534 271.875 42.453125 C269.91666152 42.45576837 267.9583245 42.46089355 266 42.46875 C264.63101563 42.45660461 264.63101563 42.45660461 263.234375 42.44421387 C257.69749469 42.52528813 254.31041073 43.17787799 250 47 C247.1630164 50.60224279 247.67640555 55.10135783 247.6640625 59.4921875 C247.6574057 60.31574738 247.6507489 61.13930725 247.64389038 61.98782349 C247.63377997 63.7276995 247.62907286 65.46761417 247.62939453 67.20751953 C247.62502627 69.85905408 247.58870535 72.50891657 247.55078125 75.16015625 C247.5449116 76.854161 247.5409432 78.54817362 247.5390625 80.2421875 C247.51750595 81.42371902 247.51750595 81.42371902 247.49551392 82.62911987 C247.53841576 87.8403248 248.41709736 90.95592408 252 95 C255.93817867 97.31440767 259.76562705 97.30285499 264.26953125 97.4140625 C264.95053391 97.43342865 265.63153656 97.4527948 266.33317566 97.4727478 C268.49282593 97.53218132 270.65253057 97.578782 272.8125 97.625 C274.28322544 97.66321328 275.75392929 97.70226694 277.22460938 97.7421875 C280.81620789 97.83785183 284.40796913 97.92201575 288 98 C284.33846264 100.94204488 280.62492763 103.79643051 276.875 106.625 C269.59645995 112.17447039 262.8199254 118.1800746 256.34375 124.65625 C254.78038219 126.21961781 253.16389888 127.73158848 251.5 129.1875 C248.70623139 132.33048969 247.21970057 135.36886524 245.44140625 139.1484375 C243.85566584 142.28553913 242.02777252 145.17001994 240.125 148.125 C221.21789885 178.56863745 216.74404182 216.08753936 224.61816406 250.71875 C229.01096745 268.52015413 235.75455223 283.95033492 245.85253906 299.2175293 C247.28796708 301.44732929 248.63911122 303.72411254 250 306 C218.8735915 306.11403355 187.74723818 306.20253306 156.62067043 306.25532665 C152.94690169 306.26158027 149.27313336 306.26805187 145.59936523 306.2746582 C144.50228163 306.27662553 144.50228163 306.27662553 143.38303473 306.2786326 C131.53643847 306.3003963 119.68996337 306.33982308 107.84343902 306.38576398 C95.69013907 306.4325019 83.53690263 306.46028973 71.38351649 306.47044247 C63.88259481 306.47730722 56.3820156 306.4989977 48.88119932 306.53958233 C43.13204379 306.56910695 37.38310829 306.57228087 31.63389206 306.56553841 C29.27357433 306.56691693 26.91324395 306.57690197 24.55300331 306.59602737 C21.33566067 306.62082493 18.11979531 306.61495273 14.90242004 306.60127258 C13.96370192 306.61583679 13.02498379 306.630401 12.05781966 306.64540654 C7.92779542 306.59778551 5.54181142 306.31401116 1.91867828 304.21419525 C-1.04057308 299.2568182 -0.67271281 294.64372595 -0.60127258 288.97160339 C-0.60555267 287.74115799 -0.60983276 286.51071259 -0.61424255 285.24298096 C-0.62108141 281.82329014 -0.60539392 278.40502743 -0.58036365 274.98550867 C-0.55853913 271.24319991 -0.5658361 267.50092756 -0.56945324 263.75857258 C-0.5721123 256.49309326 -0.54901882 249.22792275 -0.5169466 241.96252279 C-0.48096078 233.55917246 -0.47697368 225.15600788 -0.47302246 216.75256348 C-0.44676567 194.56416 -0.37696015 172.37582538 -0.3125 150.1875 C-0.209375 100.625625 -0.10625 51.06375 0 0 Z " fill="#EAEAEA" transform="translate(32,178)"/>
<path d="M0 0 C22.78671284 19.16667876 39.54991795 46.54350987 42.82568359 76.53564453 C43.90569648 92.16106702 43.64036666 107.54578667 38.82568359 122.53564453 C38.60074219 123.23608887 38.37580078 123.9365332 38.14404297 124.65820312 C29.29139196 151.36857783 12.12974408 174.12401276 -12.17431641 188.53564453 C-12.96193359 189.04740234 -13.74955078 189.55916016 -14.56103516 190.08642578 C-26.43811728 197.68383203 -39.52959947 201.53257478 -53.17431641 204.53564453 C-53.96539795 204.71216553 -54.75647949 204.88868652 -55.5715332 205.07055664 C-83.34444118 210.03326086 -113.56824937 201.69606943 -136.48681641 186.03564453 C-138.06013609 184.88361045 -139.6228021 183.71688147 -141.17431641 182.53564453 C-141.99287109 181.92076172 -142.81142578 181.30587891 -143.65478516 180.67236328 C-160.94361941 167.29697058 -174.71030394 149.58736081 -181.17431641 128.53564453 C-181.52236328 127.46958984 -181.87041016 126.40353516 -182.22900391 125.30517578 C-191.47407639 95.44426647 -188.2501972 65.62457364 -175.17431641 37.53564453 C-174.51431641 37.53564453 -173.85431641 37.53564453 -173.17431641 37.53564453 C-173.01576172 36.45476562 -173.01576172 36.45476562 -172.85400391 35.35205078 C-168.9730008 19.27042297 -148.28332363 2.10488494 -134.98681641 -6.78076172 C-92.84422045 -32.00778791 -39.04352707 -31.38964379 0 0 Z " fill="#E9E9E9" transform="translate(466.17431640625,306.46435546875)"/>
<path d="M0 0 C1.20135086 0.00888245 2.40270172 0.01776489 3.64045715 0.0269165 C4.30413803 0.0263324 4.96781891 0.02574829 5.65161133 0.02514648 C7.84349529 0.02793144 10.03401614 0.05903932 12.22566223 0.09039307 C13.74594378 0.09785408 15.26623494 0.10354767 16.78652954 0.10754395 C20.78659144 0.12281153 24.78607172 0.16210224 28.78590393 0.20635986 C32.86795686 0.24728879 36.95010385 0.26554983 41.03230286 0.28570557 C49.04103321 0.32859609 57.04929098 0.39686021 65.05769348 0.48101807 C65.11610413 1.7807959 65.17451477 3.08057373 65.23469543 4.41973877 C65.31739041 6.1446034 65.40032975 7.86945632 65.48347473 9.59429932 C65.52122009 10.44866577 65.55896545 11.30303223 65.59785461 12.18328857 C66.16134753 23.6098255 68.39288769 32.17453517 76.87409973 40.19976807 C83.4583976 45.6268257 91.24504936 48.12321993 99.77253723 47.76226807 C108.71444138 46.66172602 116.14099294 43.41606075 121.81550598 36.26617432 C129.69397165 24.82907802 129.21498872 14.80699894 130.05769348 0.48101807 C190.77769348 0.48101807 251.49769348 0.48101807 314.05769348 0.48101807 C314.38769348 6.09101807 314.71769348 11.70101807 315.05769348 17.48101807 C316.33321676 27.56924762 320.08821581 35.91174082 328.26472473 42.30133057 C335.92126841 47.33896933 344.64358338 48.6526357 353.58113098 47.02008057 C361.69136495 44.89894245 368.43145474 40.58559899 373.05769348 33.48101807 C377.12564565 25.50549893 378.21691021 18.53413889 378.62019348 9.66851807 C378.66337708 8.78486572 378.70656067 7.90121338 378.75105286 6.99078369 C378.85660884 4.82102184 378.9576042 2.65103896 379.05769348 0.48101807 C387.87190932 0.38839216 396.68595798 0.31729119 405.50055408 0.27376938 C409.59342434 0.25288239 413.68596196 0.22454521 417.77864075 0.17926025 C421.72735557 0.13584101 425.6757502 0.11188933 429.62468529 0.10150909 C431.13223501 0.09411056 432.63976693 0.07966294 434.14718056 0.05809784 C436.25681734 0.02911401 438.36512639 0.02505966 440.47492981 0.0269165 C441.67628067 0.01803406 442.87763153 0.00915161 444.11538696 0 C447.05769348 0.48101807 447.05769348 0.48101807 450.05769348 4.48101807 C450.05769348 31.54101807 450.05769348 58.60101807 450.05769348 86.48101807 C299.57769348 86.48101807 149.09769348 86.48101807 -5.94230652 86.48101807 C-5.94230652 0.97146806 -5.94230652 0.97146806 0 0 Z " fill="#637D24" transform="translate(37.94230651855469,76.51898193359375)"/>
<path d="M0 0 C32.84330901 -0.14916985 63.39164287 11.2821927 88.59765625 32.02392578 C89.13632324 32.46325439 89.67499023 32.90258301 90.22998047 33.35522461 C93.09607071 35.70960571 95.6281502 37.85083271 97.59765625 41.02392578 C97.59765625 41.68392578 97.59765625 42.34392578 97.59765625 43.02392578 C98.91765625 43.68392578 100.23765625 44.34392578 101.59765625 45.02392578 C101.59765625 45.68392578 101.59765625 46.34392578 101.59765625 47.02392578 C102.25765625 47.02392578 102.91765625 47.02392578 103.59765625 47.02392578 C106.51945666 50.49650236 109.02463448 54.28859181 111.59765625 58.02392578 C112.19191406 58.87599609 112.78617188 59.72806641 113.3984375 60.60595703 C133.00806645 89.95278105 139.00899507 125.44083245 133.59765625 160.02392578 C132.37549785 166.16401209 130.6073166 172.10048164 128.59765625 178.02392578 C128.21609375 179.16990234 127.83453125 180.31587891 127.44140625 181.49658203 C122.77651312 194.46687611 116.07867477 206.1852496 107.59765625 217.02392578 C106.86804688 217.98041016 106.1384375 218.93689453 105.38671875 219.92236328 C101.33698883 225.14169029 101.33698883 225.14169029 99.59765625 227.02392578 C98.93765625 227.02392578 98.27765625 227.02392578 97.59765625 227.02392578 C97.32953125 227.66330078 97.06140625 228.30267578 96.78515625 228.96142578 C95.59765625 231.02392578 95.59765625 231.02392578 92.59765625 232.02392578 C91.92758462 233.35555119 91.26143536 234.68915257 90.59765625 236.02392578 C66.64896311 259.13144582 31.27483836 270.29891729 -1.40234375 270.02392578 C-22.1389625 269.4269571 -40.78190968 265.11004569 -59.40234375 256.02392578 C-60.37429688 255.55212891 -61.34625 255.08033203 -62.34765625 254.59423828 C-72.72304175 249.24017638 -82.94015841 242.08314991 -91.40234375 234.02392578 C-91.40234375 233.36392578 -91.40234375 232.70392578 -91.40234375 232.02392578 C-92.04171875 231.75580078 -92.68109375 231.48767578 -93.33984375 231.21142578 C-95.40234375 230.02392578 -95.40234375 230.02392578 -96.40234375 227.02392578 C-96.99402344 226.73388672 -97.58570313 226.44384766 -98.1953125 226.14501953 C-112.88979899 218.68074056 -123.24926873 191.62423201 -128.30859375 176.66845703 C-129.54138756 172.56061195 -130.64429029 168.44205178 -131.65234375 164.27392578 C-131.81573242 163.60111572 -131.97912109 162.92830566 -132.14746094 162.23510742 C-139.70657241 129.09348063 -132.43431917 93.96690405 -115.40234375 65.02392578 C-114.74234375 65.02392578 -114.08234375 65.02392578 -113.40234375 65.02392578 C-113.15097656 64.31107422 -112.89960938 63.59822266 -112.640625 62.86376953 C-108.57290962 53.53497117 -100.62608869 45.07567679 -93.40234375 38.02392578 C-92.94730469 37.52376953 -92.49226563 37.02361328 -92.0234375 36.50830078 C-71.76138343 14.77356609 -38.56777133 1.13080871 -9.19360352 0.0690918 C-6.129006 0.01235864 -3.06486424 0.03052405 0 0 Z M-79.40234375 52.02392578 C-80.36398437 52.91595703 -81.325625 53.80798828 -82.31640625 54.72705078 C-87.81828446 60.01284314 -92.32561321 65.5790149 -96.40234375 72.02392578 C-96.83675781 72.70970703 -97.27117187 73.39548828 -97.71875 74.10205078 C-99.43329486 76.94568616 -100.40234375 78.64837435 -100.40234375 82.02392578 C-101.06234375 82.02392578 -101.72234375 82.02392578 -102.40234375 82.02392578 C-115.78594095 112.73852947 -119.44791626 146.13755609 -107.18847656 178.12988281 C-97.74152322 200.89058592 -80.57277405 220.54638166 -59.40234375 233.02392578 C-58.479375 233.60916016 -57.55640625 234.19439453 -56.60546875 234.79736328 C-33.41321195 249.15148979 -2.58536573 254.42278877 24.09765625 248.39892578 C55.85445882 240.60481873 83.21379652 221.41681612 100.21972656 193.42480469 C115.25683955 167.22442037 120.52469665 135.67374305 112.8671875 106.22705078 C110.94882631 99.60192412 108.45316927 93.30158103 105.59765625 87.02392578 C105.19675781 86.12416016 104.79585937 85.22439453 104.3828125 84.29736328 C99.17962675 73.26030261 92.02254196 63.7852462 83.59765625 55.02392578 C82.79199219 54.16669922 81.98632812 53.30947266 81.15625 52.42626953 C61.98026857 32.53006345 34.30585919 20.52623977 6.69140625 19.82080078 C-27.05547488 19.41501132 -54.70107399 28.76368472 -79.40234375 52.02392578 Z " fill="#415386" transform="translate(393.40234375,261.97607421875)"/>
<path d="M0 0 C0.67740234 0.19223145 1.35480469 0.38446289 2.05273438 0.58251953 C29.95533703 8.73900134 56.16763561 30.60027633 70.3125 55.875 C86.63840497 86.11661417 90.74483372 119.58894717 81.125 152.75 C75.90420447 168.68613616 68.97069675 183.58763397 57.19921875 195.68359375 C55.36761311 197.61279827 53.97184623 199.39141518 52.5625 201.625 C49.07927133 206.75172389 43.87596827 210.28497656 39 214 C38.22785156 214.598125 37.45570313 215.19625 36.66015625 215.8125 C10.1674516 235.37634344 -23.22123857 242.89283905 -55.72265625 238.31640625 C-90.00888303 232.40465126 -117.49499805 212.7062865 -137.625 184.6875 C-154.87317706 159.26597074 -162.22474624 127.51357092 -156.6953125 97.140625 C-152.32661601 77.40786106 -146.40381572 60.11622536 -134 44 C-133.13378262 42.83193918 -132.26927097 41.66261196 -131.40625 40.4921875 C-130.52151705 39.30678106 -129.63611027 38.12187722 -128.75 36.9375 C-128.33782227 36.37683838 -127.92564453 35.81617676 -127.50097656 35.23852539 C-125.28401924 32.31809316 -123.48133259 30.28553795 -120 29 C-120 28.34 -120 27.68 -120 27 C-86.73778957 -1.88718095 -42.17968231 -12.26902815 0 0 Z M-116 34 C-116.96164062 34.89203125 -117.92328125 35.7840625 -118.9140625 36.703125 C-124.41594071 41.98891736 -128.92326946 47.55508911 -133 54 C-133.43441406 54.68578125 -133.86882812 55.3715625 -134.31640625 56.078125 C-136.03095111 58.92176038 -137 60.62444857 -137 64 C-137.66 64 -138.32 64 -139 64 C-152.3835972 94.71460368 -156.04557251 128.11363031 -143.78613281 160.10595703 C-134.33917947 182.86666013 -117.1704303 202.52245588 -96 215 C-95.07703125 215.58523438 -94.1540625 216.17046875 -93.203125 216.7734375 C-70.0108682 231.12756401 -39.18302198 236.39886299 -12.5 230.375 C19.25680257 222.58089295 46.61614027 203.39289034 63.62207031 175.40087891 C78.6591833 149.20049459 83.9270404 117.64981727 76.26953125 88.203125 C74.35117006 81.57799834 71.85551302 75.27765525 69 69 C68.59910156 68.10023438 68.19820312 67.20046875 67.78515625 66.2734375 C62.5819705 55.23637682 55.42488571 45.76132042 47 37 C46.19433594 36.14277344 45.38867188 35.28554688 44.55859375 34.40234375 C25.38261232 14.50613767 -2.29179706 2.50231399 -29.90625 1.796875 C-63.65313113 1.39108553 -91.29873024 10.73975894 -116 34 Z " fill="#030304" transform="translate(430,280)"/>
<path d="M0 0 C1.3940078 -0.00786278 1.3940078 -0.00786278 2.81617737 -0.0158844 C4.77530929 -0.02228783 6.73447974 -0.02098941 8.69360352 -0.01245117 C11.6785988 -0.00394276 14.66167791 -0.03272341 17.64648438 -0.06445312 C19.55598901 -0.06606547 21.46549702 -0.06548697 23.375 -0.0625 C24.26062119 -0.07373398 25.14624237 -0.08496796 26.05870056 -0.09654236 C31.94612498 -0.03087077 35.52605847 0.82388667 40.25390625 4.43359375 C43.42070792 8.96991067 43.70901505 13.26513492 43.6875 18.6484375 C43.69274185 19.42240372 43.6979837 20.19636993 43.7033844 20.99378967 C43.70977982 22.62337042 43.70849985 24.25299748 43.69995117 25.88256836 C43.69144191 28.36070866 43.7202323 30.8365401 43.75195312 33.31445312 C43.75356556 34.90494723 43.75298679 36.49544538 43.75 38.0859375 C43.76685097 39.1846946 43.76685097 39.1846946 43.78404236 40.3056488 C43.71108945 45.75597114 42.52038165 49.02192971 39.25390625 53.43359375 C34.30013332 57.01714494 29.39270003 56.88665012 23.5078125 56.8671875 C22.57847397 56.87242935 21.64913544 56.8776712 20.69163513 56.8830719 C18.73250321 56.88947533 16.77333276 56.88817691 14.81420898 56.87963867 C11.8292137 56.87113026 8.84613459 56.89991091 5.86132812 56.93164062 C3.95182349 56.93325297 2.04231548 56.93267447 0.1328125 56.9296875 C-1.19561928 56.94653847 -1.19561928 56.94653847 -2.55088806 56.96372986 C-8.43831248 56.89805827 -12.01824597 56.04330083 -16.74609375 52.43359375 C-19.91289542 47.89727683 -20.20120255 43.60205258 -20.1796875 38.21875 C-20.18492935 37.44478378 -20.1901712 36.67081757 -20.1955719 35.87339783 C-20.20196732 34.24381708 -20.20068735 32.61419002 -20.19213867 30.98461914 C-20.18362941 28.50647884 -20.2124198 26.0306474 -20.24414062 23.55273438 C-20.24575306 21.96224027 -20.24517429 20.37174212 -20.2421875 18.78125 C-20.25342148 18.04874527 -20.26465546 17.31624054 -20.27622986 16.5615387 C-20.20327695 11.11121636 -19.01256915 7.84525779 -15.74609375 3.43359375 C-10.79232082 -0.14995744 -5.88488753 -0.01946262 0 0 Z " fill="#000000" transform="translate(97.74609375,385.56640625)"/>
<path d="M0 0 C1.29209381 -0.01925285 1.29209381 -0.01925285 2.61029053 -0.03889465 C3.54359192 -0.04628159 4.47689331 -0.05366852 5.43847656 -0.0612793 C6.3980426 -0.06935104 7.35760864 -0.07742279 8.34625244 -0.08573914 C10.38055613 -0.09958545 12.41488312 -0.11030515 14.44921875 -0.11816406 C17.55286053 -0.13535272 20.65543048 -0.17923118 23.75878906 -0.22338867 C25.73534373 -0.23351771 27.71190745 -0.24203315 29.68847656 -0.2487793 C30.61368103 -0.26628738 31.5388855 -0.28379547 32.49212646 -0.30183411 C38.09136753 -0.28309169 41.48497768 0.28847118 45.82910156 4.17700195 C49.31157654 8.34778219 49.28217401 12.54772324 49.26269531 17.7668457 C49.26793716 18.58899063 49.27317902 19.41113556 49.27857971 20.25819397 C49.28498557 21.99210484 49.28368153 23.72605924 49.27514648 25.45996094 C49.26663935 28.10276229 49.29541081 30.74339841 49.32714844 33.38598633 C49.32876081 35.07543881 49.32818223 36.76489509 49.32519531 38.4543457 C49.34204628 39.63117165 49.34204628 39.63117165 49.35923767 40.83177185 C49.29347741 46.04857629 48.35443051 49.09410894 44.82910156 53.17700195 C40.37159343 57.0421502 35.53941855 56.62854779 29.92675781 56.6105957 C28.49377602 56.61845848 28.49377602 56.61845848 27.03184509 56.6264801 C25.01546193 56.63289118 22.99904133 56.63157516 20.98266602 56.62304688 C17.90540645 56.61454012 14.83000587 56.6433061 11.75292969 56.67504883 C9.79003962 56.67666113 7.82714627 56.67608276 5.86425781 56.6730957 C4.94846451 56.68432968 4.0326712 56.69556366 3.08912659 56.70713806 C-2.50261832 56.64644781 -5.73849478 55.91731862 -10.17089844 52.17700195 C-14.14625623 47.65331895 -14.33922717 43.46576676 -14.37402344 37.6574707 C-14.37972351 36.92128006 -14.38542358 36.18508942 -14.39129639 35.42658997 C-14.400736 33.8690433 -14.40727625 32.31147675 -14.41113281 30.75390625 C-14.42082075 28.38351109 -14.45184519 26.01398993 -14.48339844 23.64379883 C-14.48993085 22.12752791 -14.49518039 20.61125082 -14.49902344 19.0949707 C-14.51137024 18.39164108 -14.52371704 17.68831146 -14.53643799 16.96366882 C-14.51552877 12.29168702 -13.62582493 9.14414269 -11.17089844 5.17700195 C-7.42650203 1.79791252 -5.0145116 0.06502806 0 0 Z " fill="#000000" transform="translate(192.1708984375,385.822998046875)"/>
<path d="M0 0 C1.3940078 -0.00786278 1.3940078 -0.00786278 2.81617737 -0.0158844 C4.77530929 -0.02228783 6.73447974 -0.02098941 8.69360352 -0.01245117 C11.6785988 -0.00394276 14.66167791 -0.03272341 17.64648438 -0.06445312 C19.55598901 -0.06606547 21.46549702 -0.06548697 23.375 -0.0625 C24.26062119 -0.07373398 25.14624237 -0.08496796 26.05870056 -0.09654236 C31.94612498 -0.03087077 35.52605847 0.82388667 40.25390625 4.43359375 C43.42070792 8.96991067 43.70901505 13.26513492 43.6875 18.6484375 C43.69274185 19.42240372 43.6979837 20.19636993 43.7033844 20.99378967 C43.70977982 22.62337042 43.70849985 24.25299748 43.69995117 25.88256836 C43.69144191 28.36070866 43.7202323 30.8365401 43.75195312 33.31445312 C43.75356556 34.90494723 43.75298679 36.49544538 43.75 38.0859375 C43.76685097 39.1846946 43.76685097 39.1846946 43.78404236 40.3056488 C43.71108945 45.75597114 42.52038165 49.02192971 39.25390625 53.43359375 C34.28098776 57.04113551 29.34653929 56.87217332 23.4375 56.83203125 C22.03637718 56.83633652 22.03637718 56.83633652 20.60694885 56.84072876 C18.63940827 56.84276354 16.6718472 56.83727481 14.7043457 56.82470703 C11.69761887 56.80862698 8.69223249 56.82458505 5.68554688 56.84375 C3.76952829 56.84176782 1.85351054 56.83792466 -0.0625 56.83203125 C-1.40641563 56.84114029 -1.40641563 56.84114029 -2.77748108 56.85043335 C-8.98411999 56.78065617 -12.29043445 55.61640202 -16.99609375 51.43359375 C-20.35784699 47.59159004 -19.9367246 43.3497771 -19.984375 38.51171875 C-19.99244675 37.73350769 -20.00051849 36.95529663 -20.00883484 36.15350342 C-20.0226585 34.50600399 -20.03338834 32.85847612 -20.04125977 31.2109375 C-20.05276723 29.53311725 -20.07319967 27.85533326 -20.1027832 26.17773438 C-20.14563936 23.74714402 -20.16165407 21.31764092 -20.171875 18.88671875 C-20.18938309 18.14480286 -20.20689117 17.40288696 -20.22492981 16.63848877 C-20.20228106 11.13776628 -19.05206582 7.88096651 -15.74609375 3.43359375 C-10.79232082 -0.14995744 -5.88488753 -0.01946262 0 0 Z " fill="#000000" transform="translate(97.74609375,302.56640625)"/>
<path d="M0 0 C1.29209381 -0.01925285 1.29209381 -0.01925285 2.61029053 -0.03889465 C3.54359192 -0.04628159 4.47689331 -0.05366852 5.43847656 -0.0612793 C6.3980426 -0.06935104 7.35760864 -0.07742279 8.34625244 -0.08573914 C10.38055613 -0.09958545 12.41488312 -0.11030515 14.44921875 -0.11816406 C17.55286053 -0.13535272 20.65543048 -0.17923118 23.75878906 -0.22338867 C25.73534373 -0.23351771 27.71190745 -0.24203315 29.68847656 -0.2487793 C30.61368103 -0.26628738 31.5388855 -0.28379547 32.49212646 -0.30183411 C38.09136753 -0.28309169 41.48497768 0.28847118 45.82910156 4.17700195 C49.31157654 8.34778219 49.28217401 12.54772324 49.26269531 17.7668457 C49.26793716 18.58899063 49.27317902 19.41113556 49.27857971 20.25819397 C49.28498557 21.99210484 49.28368153 23.72605924 49.27514648 25.45996094 C49.26663935 28.10276229 49.29541081 30.74339841 49.32714844 33.38598633 C49.32876081 35.07543881 49.32818223 36.76489509 49.32519531 38.4543457 C49.34204628 39.63117165 49.34204628 39.63117165 49.35923767 40.83177185 C49.29361947 46.03730657 48.40701748 49.14369459 44.82910156 53.17700195 C39.78797436 56.70737684 34.97969906 56.63014454 29.04785156 56.6105957 C27.65028625 56.61845848 27.65028625 56.61845848 26.2244873 56.6264801 C24.2611592 56.63288297 22.29779264 56.63158585 20.33447266 56.62304688 C17.33849588 56.61452866 14.34442192 56.64333565 11.34863281 56.67504883 C9.43587296 56.67666088 7.52310976 56.67608322 5.61035156 56.6730957 C4.27417786 56.68994667 4.27417786 56.68994667 2.91101074 56.70713806 C-2.61461389 56.64550772 -5.78390605 55.85551733 -10.17089844 52.17700195 C-14.14625623 47.65331895 -14.33922717 43.46576676 -14.37402344 37.6574707 C-14.37972351 36.92128006 -14.38542358 36.18508942 -14.39129639 35.42658997 C-14.400736 33.8690433 -14.40727625 32.31147675 -14.41113281 30.75390625 C-14.42082075 28.38351109 -14.45184519 26.01398993 -14.48339844 23.64379883 C-14.48993085 22.12752791 -14.49518039 20.61125082 -14.49902344 19.0949707 C-14.51137024 18.39164108 -14.52371704 17.68831146 -14.53643799 16.96366882 C-14.51552877 12.29168702 -13.62582493 9.14414269 -11.17089844 5.17700195 C-7.42650203 1.79791252 -5.0145116 0.06502806 0 0 Z " fill="#000000" transform="translate(192.1708984375,302.822998046875)"/>
<path d="M0 0 C1.29209381 -0.01925285 1.29209381 -0.01925285 2.61029053 -0.03889465 C3.54359192 -0.04628159 4.47689331 -0.05366852 5.43847656 -0.0612793 C6.3980426 -0.06935104 7.35760864 -0.07742279 8.34625244 -0.08573914 C10.38055613 -0.09958545 12.41488312 -0.11030515 14.44921875 -0.11816406 C17.55286053 -0.13535272 20.65543048 -0.17923118 23.75878906 -0.22338867 C25.73534373 -0.23351771 27.71190745 -0.24203315 29.68847656 -0.2487793 C30.61368103 -0.26628738 31.5388855 -0.28379547 32.49212646 -0.30183411 C38.09136753 -0.28309169 41.48497768 0.28847118 45.82910156 4.17700195 C49.31157654 8.34778219 49.28217401 12.54772324 49.26269531 17.7668457 C49.26793716 18.58899063 49.27317902 19.41113556 49.27857971 20.25819397 C49.28498557 21.99210484 49.28368153 23.72605924 49.27514648 25.45996094 C49.26663935 28.10276229 49.29541081 30.74339841 49.32714844 33.38598633 C49.32876081 35.07543881 49.32818223 36.76489509 49.32519531 38.4543457 C49.34204628 39.63117165 49.34204628 39.63117165 49.35923767 40.83177185 C49.29361947 46.03730657 48.40701748 49.14369459 44.82910156 53.17700195 C39.78797436 56.70737684 34.97969906 56.63014454 29.04785156 56.6105957 C27.65028625 56.61845848 27.65028625 56.61845848 26.2244873 56.6264801 C24.2611592 56.63288297 22.29779264 56.63158585 20.33447266 56.62304688 C17.33849588 56.61452866 14.34442192 56.64333565 11.34863281 56.67504883 C9.43587296 56.67666088 7.52310976 56.67608322 5.61035156 56.6730957 C4.27417786 56.68994667 4.27417786 56.68994667 2.91101074 56.70713806 C-2.61461389 56.64550772 -5.78390605 55.85551733 -10.17089844 52.17700195 C-14.14625623 47.65331895 -14.33922717 43.46576676 -14.37402344 37.6574707 C-14.37972351 36.92128006 -14.38542358 36.18508942 -14.39129639 35.42658997 C-14.400736 33.8690433 -14.40727625 32.31147675 -14.41113281 30.75390625 C-14.42082075 28.38351109 -14.45184519 26.01398993 -14.48339844 23.64379883 C-14.48993085 22.12752791 -14.49518039 20.61125082 -14.49902344 19.0949707 C-14.51137024 18.39164108 -14.52371704 17.68831146 -14.53643799 16.96366882 C-14.51552877 12.29168702 -13.62582493 9.14414269 -11.17089844 5.17700195 C-7.42650203 1.79791252 -5.0145116 0.06502806 0 0 Z " fill="#000000" transform="translate(192.1708984375,219.822998046875)"/>
<path d="M0 0 C4.74892363 2.9998554 7.24929316 6.81049632 9.01171875 12.08984375 C9.5696571 16.20052587 9.57306505 20.25863767 9.54296875 24.40234375 C9.54679565 25.57063721 9.55062256 26.73893066 9.55456543 27.94262695 C9.55727762 30.40349188 9.54996525 32.86438598 9.53320312 35.32519531 C9.51178559 39.07813178 9.53303053 42.82915387 9.55859375 46.58203125 C9.55595035 48.98047295 9.55082513 51.37891346 9.54296875 53.77734375 C9.55106567 54.89214111 9.5591626 56.00693848 9.56750488 57.15551758 C9.48167608 64.33497391 8.64403331 70.28436245 3.5291748 75.64306641 C-0.96055607 79.57674084 -4.7858088 80.50901277 -10.57421875 80.43359375 C-16.24751097 79.62574631 -19.99667218 76.36113743 -23.42578125 71.96484375 C-25.52588803 68.10064728 -26.11704534 65.32689229 -26.14941406 60.99511719 C-26.15902161 59.95683777 -26.16862915 58.91855835 -26.17852783 57.84881592 C-26.18277771 56.72694885 -26.18702759 55.60508179 -26.19140625 54.44921875 C-26.19710632 53.29367493 -26.2028064 52.1381311 -26.2086792 50.9475708 C-26.21813194 48.49972449 -26.22466426 46.05186544 -26.22851562 43.60400391 C-26.23820668 39.86858742 -26.26922239 36.13372448 -26.30078125 32.3984375 C-26.30731284 30.01953452 -26.3125627 27.6406276 -26.31640625 25.26171875 C-26.32875305 24.14794861 -26.34109985 23.03417847 -26.3538208 21.88665771 C-26.33228526 14.34560676 -25.63145679 9.32039163 -20.73828125 3.33984375 C-14.27180046 -1.95091326 -7.68829115 -3.51939457 0 0 Z " fill="#EBEBEB" transform="translate(392.98828125,29.91015625)"/>
<path d="M0 0 C4.00796902 3.219364 6.10613749 6.72866741 7.125 11.75 C7.22929681 13.47865614 7.2832384 15.21068486 7.30200195 16.94238281 C7.32125481 18.49484711 7.32125481 18.49484711 7.34089661 20.07867432 C7.34828354 21.19224304 7.35567047 22.30581177 7.36328125 23.453125 C7.371353 24.6048822 7.37942474 25.7566394 7.38774109 26.94329834 C7.40156781 29.38096619 7.41229627 31.81865329 7.42016602 34.25634766 C7.43737061 37.97205556 7.48127032 41.68687173 7.52539062 45.40234375 C7.53551877 47.77343097 7.54403449 50.14452574 7.55078125 52.515625 C7.56828934 53.6210968 7.58579742 54.7265686 7.60383606 55.86553955 C7.58492045 62.638824 6.75310663 66.98529086 3.125 72.75 C-1.75699913 77.38789917 -5.8990647 79.23080021 -12.5625 79.06640625 C-17.49767273 78.39115458 -20.7770151 75.90733544 -24.1875 72.3125 C-27.01006427 68.02638388 -28.12324443 64.47749292 -28.16552734 59.35229492 C-28.17828705 58.2973735 -28.19104675 57.24245209 -28.20419312 56.15556335 C-28.20641876 55.02528214 -28.20864441 53.89500092 -28.2109375 52.73046875 C-28.2175943 51.55793045 -28.2242511 50.38539215 -28.23110962 49.17732239 C-28.24122608 46.69855313 -28.24592695 44.21975668 -28.24560547 41.7409668 C-28.24997214 37.96161647 -28.28628692 34.18344021 -28.32421875 30.40429688 C-28.33008847 27.99219148 -28.33405682 25.58008055 -28.3359375 23.16796875 C-28.35030853 22.04376022 -28.36467957 20.9195517 -28.37948608 19.76127625 C-28.3364309 12.31368113 -27.49623378 6.49035331 -22.09375 0.91015625 C-21.24296875 0.36681641 -21.24296875 0.36681641 -20.375 -0.1875 C-19.8078125 -0.56777344 -19.240625 -0.94804687 -18.65625 -1.33984375 C-12.61111072 -4.42869781 -5.58047621 -3.76771006 0 0 Z " fill="#EBEBEB" transform="translate(145.875,31.25)"/>
<path d="M0 0 C0.86004289 2.39239168 1.16705244 3.571697 0.22802734 5.97924805 C-0.39918213 7.01625854 -0.39918213 7.01625854 -1.0390625 8.07421875 C-1.73950684 9.25636963 -1.73950684 9.25636963 -2.45410156 10.46240234 C-2.96424805 11.29980957 -3.47439453 12.1372168 -4 13 C-5.02969418 14.75589607 -6.05831081 16.5124244 -7.0859375 18.26953125 C-8.18166396 20.11755982 -9.27803411 21.96520687 -10.375 23.8125 C-10.94428223 24.77792725 -11.51356445 25.74335449 -12.10009766 26.73803711 C-14.50984761 30.82265604 -16.92119275 34.90181565 -19.4375 38.921875 C-20.3965625 40.47648437 -20.3965625 40.47648437 -21.375 42.0625 C-21.91898437 42.91972656 -22.46296875 43.77695312 -23.0234375 44.66015625 C-24.23468864 47.56231398 -23.92905738 49.03800523 -23 52 C-22.67 52.66 -22.34 53.32 -22 54 C-21.61106181 58.66725826 -21.54852163 61.07967871 -23.625 65.3125 C-27.19364703 69.35070586 -30.17079706 70.77134963 -35.5 71.4375 C-39.6815053 70.91481184 -41.75429937 69.64184935 -45 67 C-47 64 -47 64 -47 61 C-56.9 61 -66.8 61 -77 61 C-77 59.02 -77 57.04 -77 55 C-67.1 55 -57.2 55 -47 55 C-46.67 53.35 -46.34 51.7 -46 50 C-42.93023334 46.53413442 -40.63365316 45.91484857 -36.21875 45.55078125 C-32.91517927 44.92185816 -31.407131 44.44368798 -29.11303711 41.94360352 C-27.38179323 39.15160354 -25.8885222 36.32234505 -24.4375 33.375 C-23.33464702 31.28124389 -22.23178237 29.18749392 -21.12890625 27.09375 C-20.60055176 26.05992187 -20.07219727 25.02609375 -19.52783203 23.9609375 C-17.4169314 19.87001343 -15.15602504 15.87267276 -12.875 11.875 C-12.18442059 10.64349554 -11.49428146 9.41174404 -10.8046875 8.1796875 C-10.20914063 7.13039063 -9.61359375 6.08109375 -9 5 C-8.46632813 4.05382812 -7.93265625 3.10765625 -7.3828125 2.1328125 C-5.12588336 -1.3482138 -3.71207993 -1.11362398 0 0 Z " fill="#060606" transform="translate(429,339)"/>
<path d="M0 0 C11.22 0 22.44 0 34 0 C34 8.58 34 17.16 34 26 C22.78 26 11.56 26 0 26 C0 17.42 0 8.84 0 0 Z " fill="#FFFFFF" transform="translate(193,401)"/>
<path d="M0 0 C11.22 0 22.44 0 34 0 C34 8.58 34 17.16 34 26 C22.78 26 11.56 26 0 26 C0 17.42 0 8.84 0 0 Z " fill="#FFFFFF" transform="translate(193,318)"/>
<path d="M0 0 C11.22 0 22.44 0 34 0 C34 8.58 34 17.16 34 26 C22.78 26 11.56 26 0 26 C0 17.42 0 8.84 0 0 Z " fill="#FFFFFF" transform="translate(293,235)"/>
<path d="M0 0 C11.22 0 22.44 0 34 0 C34 8.58 34 17.16 34 26 C22.78 26 11.56 26 0 26 C0 17.42 0 8.84 0 0 Z " fill="#FFFFFF" transform="translate(193,235)"/>
<path d="M0 0 C10.89 0 21.78 0 33 0 C33 8.58 33 17.16 33 26 C22.11 26 11.22 26 0 26 C0 17.42 0 8.84 0 0 Z " fill="#FFFFFF" transform="translate(93,401)"/>
<path d="M0 0 C10.89 0 21.78 0 33 0 C33 8.58 33 17.16 33 26 C22.11 26 11.22 26 0 26 C0 17.42 0 8.84 0 0 Z " fill="#FFFFFF" transform="translate(93,318)"/>
<path d="M0 0 C10.89 0 21.78 0 33 0 C33 7.92 33 15.84 33 24 C21.88888889 22.88888889 21.88888889 22.88888889 16.5 22 C11.00707541 21.12686608 5.53912309 20.49604087 0 20 C0 13.4 0 6.8 0 0 Z " fill="#FEFEFE" transform="translate(394,235)"/>
<path d="M0 0 C5.63470383 -0.5497272 8.38987758 1.04952165 13 4 C13 4.66 13 5.32 13 6 C13.9590625 6.2165625 13.9590625 6.2165625 14.9375 6.4375 C17 7 17 7 18 8 C18.04063832 9.66617115 18.042721 11.33388095 18 13 C14.86363194 13.97800724 13.46700759 14.21434087 10.4296875 12.8203125 C9.58664062 12.26085937 8.74359375 11.70140625 7.875 11.125 C5.1792002 9.36330712 3.06665548 8.02221849 0 7 C-1.17755913 4.05610218 -1.03348696 3.10046087 0 0 Z " fill="#060606" transform="translate(307,345)"/>
<path d="M0 0 C1.98 0 3.96 0 6 0 C7.00821159 2.68856424 7.22736824 4.41703215 6.17578125 7.11328125 C5.16604698 9.10794931 4.11893353 11.0646772 3 13 C2.34 13 1.68 13 1 13 C0.855625 13.639375 0.71125 14.27875 0.5625 14.9375 C0 17 0 17 -1 18 C-3.5 18.125 -3.5 18.125 -6 18 C-7 17 -7 17 -7.24609375 14.7265625 C-6.95101478 11.45727482 -5.98414098 10.00651777 -4.0625 7.375 C-2.21523306 4.81590206 -1.00605042 3.01815125 0 0 Z " fill="#080808" transform="translate(439,310)"/>
<path d="M0 0 C1 1 1 1 1.44921875 3.2890625 C1 6 1 6 -1.66796875 8.2734375 C-2.82958072 8.99297314 -4.00348982 9.69294883 -5.1875 10.375 C-5.76564453 10.74238281 -6.34378906 11.10976563 -6.93945312 11.48828125 C-9.81137503 13.20818928 -11.55304581 14.04177142 -14.92578125 13.7265625 C-15.95251953 13.36691406 -15.95251953 13.36691406 -17 13 C-17.35546875 10.76953125 -17.35546875 10.76953125 -17 8 C-14.55078125 5.76171875 -14.55078125 5.76171875 -11.3125 3.6875 C-10.25675781 2.99011719 -9.20101563 2.29273438 -8.11328125 1.57421875 C-5.01029145 0.00520383 -3.40441883 -0.4600566 0 0 Z " fill="#090909" transform="translate(324,435)"/>
<path d="M0 0 C2.2265625 -0.38671875 2.2265625 -0.38671875 5 0 C6.7747154 2.08269865 8.03065845 3.85378349 9.375 6.1875 C9.74238281 6.76564453 10.10976563 7.34378906 10.48828125 7.93945312 C12.20818928 10.81137503 13.04177142 12.55304581 12.7265625 15.92578125 C12.48679687 16.61027344 12.24703125 17.29476563 12 18 C11.01 18.33 10.02 18.66 9 19 C6.07425011 16.23997886 3.80903454 13.47906555 1.6875 10.0625 C1.15511719 9.22847656 0.62273437 8.39445312 0.07421875 7.53515625 C-1.1963869 4.53652691 -0.93787627 3.065923 0 0 Z " fill="#0C0C0C" transform="translate(433,466)"/>
<path d="M0 0 C1.12148438 0.17595703 1.12148438 0.17595703 2.265625 0.35546875 C3.52450296 3.91782553 3.35599083 5.16287087 1.71875 8.65234375 C0.99963228 9.8129786 0.26468165 10.96392694 -0.484375 12.10546875 C-1.02578125 12.98912109 -1.02578125 12.98912109 -1.578125 13.890625 C-4.32425292 18.21876139 -4.32425292 18.21876139 -7.734375 19.35546875 C-8.724375 18.69546875 -9.714375 18.03546875 -10.734375 17.35546875 C-10.12737734 13.05057748 -8.60678667 9.82178432 -6.484375 6.04296875 C-5.61039062 4.44001953 -5.61039062 4.44001953 -4.71875 2.8046875 C-2.734375 0.35546875 -2.734375 0.35546875 0 0 Z " fill="#0C0C0C" transform="translate(352.734375,465.64453125)"/>
<path d="M0 0 C4.30056739 0.4649262 7.57070829 2.14838316 11.3125 4.25 C12.91544922 5.12398438 12.91544922 5.12398438 14.55078125 6.015625 C17 8 17 8 17.35546875 10.734375 C17.23816406 11.48203125 17.12085938 12.2296875 17 13 C13.46011817 14.23995861 12.16448339 14.07288947 8.66796875 12.5234375 C7.49829033 11.82295212 6.33821328 11.10622249 5.1875 10.375 C4.59001953 10.03082031 3.99253906 9.68664062 3.37695312 9.33203125 C1.66796875 8.2734375 1.66796875 8.2734375 -1 6 C-1.44921875 3.2890625 -1.44921875 3.2890625 -1 1 C-0.67 0.67 -0.34 0.34 0 0 Z " fill="#0C0C0C" transform="translate(464,435)"/>
<path d="M0 0 C0.38671875 2.2265625 0.38671875 2.2265625 0 5 C-2.08269865 6.7747154 -3.85378349 8.03065845 -6.1875 9.375 C-6.76564453 9.74238281 -7.34378906 10.10976563 -7.93945312 10.48828125 C-10.81137503 12.20818928 -12.55304581 13.04177142 -15.92578125 12.7265625 C-16.95251953 12.36691406 -16.95251953 12.36691406 -18 12 C-18.38671875 9.7734375 -18.38671875 9.7734375 -18 7 C-15.91730135 5.2252846 -14.14621651 3.96934155 -11.8125 2.625 C-10.9452832 2.07392578 -10.9452832 2.07392578 -10.06054688 1.51171875 C-6.3510878 -0.70976521 -4.12946463 -1.44647914 0 0 Z " fill="#0D0D0D" transform="translate(481,346)"/>
<path d="M0 0 C2.2265625 -0.38671875 2.2265625 -0.38671875 5 0 C6.7747154 2.08269865 8.03065845 3.85378349 9.375 6.1875 C9.74238281 6.76564453 10.10976563 7.34378906 10.48828125 7.93945312 C12.20818928 10.81137503 13.04177142 12.55304581 12.7265625 15.92578125 C12.48679687 16.61027344 12.24703125 17.29476563 12 18 C9.7734375 18.38671875 9.7734375 18.38671875 7 18 C5.2252846 15.91730135 3.96934155 14.14621651 2.625 11.8125 C2.25761719 11.23435547 1.89023437 10.65621094 1.51171875 10.06054688 C-0.20818928 7.18862497 -1.04177142 5.44695419 -0.7265625 2.07421875 C-0.48679687 1.38972656 -0.24703125 0.70523437 0 0 Z " fill="#0D0D0D" transform="translate(343,310)"/>
<path d="M0 0 C6.6 0 13.2 0 20 0 C21 4 21 4 20 6 C13.4 6 6.8 6 0 6 C-1 2 -1 2 0 0 Z " fill="#020202" transform="translate(294,394)"/>
<path d="M0 0 C1.65 0.33 3.3 0.66 5 1 C5 7.27 5 13.54 5 20 C1 21 1 21 -1 20 C-1.02888514 16.85418577 -1.04675923 13.70840531 -1.0625 10.5625 C-1.07087891 9.66466797 -1.07925781 8.76683594 -1.08789062 7.84179688 C-1.09111328 6.98779297 -1.09433594 6.13378906 -1.09765625 5.25390625 C-1.10551147 4.06776733 -1.10551147 4.06776733 -1.11352539 2.85766602 C-1 1 -1 1 0 0 Z " fill="#020202" transform="translate(392,477)"/>
<path d="M0 0 C1.18613892 0.00785522 1.18613892 0.00785522 2.39624023 0.01586914 C3.67724609 0.02070313 3.67724609 0.02070313 4.98413086 0.02563477 C5.88196289 0.03401367 6.77979492 0.04239258 7.70483398 0.05102539 C8.6065332 0.05553711 9.50823242 0.06004883 10.43725586 0.06469727 C12.67234712 0.07652315 14.90730835 0.09300319 17.14233398 0.11352539 C18.26733398 3.86352539 18.26733398 3.86352539 17.14233398 6.11352539 C10.87233398 6.11352539 4.60233398 6.11352539 -1.85766602 6.11352539 C-2.18766602 4.46352539 -2.51766602 2.81352539 -2.85766602 1.11352539 C-1.85766602 0.11352539 -1.85766602 0.11352539 0 0 Z " fill="#010101" transform="translate(476.857666015625,393.886474609375)"/>
<path d="M0 0 C1.875 1.125 1.875 1.125 3 3 C3.39365568 6.14924548 3.52854531 8.11909116 1.875 10.875 C-0.88090884 12.52854531 -2.85075452 12.39365568 -6 12 C-7.875 10.875 -7.875 10.875 -9 9 C-9.39365568 5.85075452 -9.52854531 3.88090884 -7.875 1.125 C-5.11909116 -0.52854531 -3.14924548 -0.39365568 0 0 Z " fill="#E4E4E4" transform="translate(397,391)"/>
<path d="M0 0 C1.65 0.33 3.3 0.66 5 1 C5 7.27 5 13.54 5 20 C1 21 1 21 -1 20 C-1.02888514 16.85418577 -1.04675923 13.70840531 -1.0625 10.5625 C-1.07087891 9.66466797 -1.07925781 8.76683594 -1.08789062 7.84179688 C-1.09111328 6.98779297 -1.09433594 6.13378906 -1.09765625 5.25390625 C-1.10551147 4.06776733 -1.10551147 4.06776733 -1.11352539 2.85766602 C-1 1 -1 1 0 0 Z " fill="#030303" transform="translate(392,297)"/>
</svg>
