<?xml version="1.0" encoding="utf-8"?>
<svg xmlns="http://www.w3.org/2000/svg" viewBox="-62.0255 35.283 320.9368 297.6208" width="320.937px" height="297.621px">
  <path d="M -5.888 36.021 C -0.683 36.018 214.075 35.34 218.306 35.334 C 219.837 35.329 221.367 35.319 222.898 35.303 C 233.546 35.198 243.788 35.225 251.919 42.952 C 257.867 49.739 258.536 56.512 258.534 65.249 C 258.538 66.116 258.868 240.376 258.858 245.925 C 258.858 247.958 258.864 249.99 258.878 252.023 C 259.018 273.985 249.067 284.701 248.387 285.253 C 244.819 287.706 242.213 288.879 237.844 288.869 C 236.938 288.872 233.62 288.866 232.111 288.855 C 230.545 288.856 198.811 288.788 192.512 288.766 C 186.083 288.745 179.655 288.736 173.227 288.726 C 160.614 288.704 148.001 288.671 135.387 288.628 C 136.285 292.175 137.209 295.714 138.137 299.253 C 138.39 300.252 138.643 301.251 138.903 302.281 C 141.017 310.263 143.337 315.813 150.387 320.628 C 155.076 323.086 159.572 322.94 164.739 322.972 C 166.083 322.994 191.534 323.327 192.362 323.341 C 193.422 323.352 196.387 323.628 199.387 325.628 C 199.7 328.128 199.7 328.128 199.387 330.628 C 196.882 333.134 195.375 332.87 191.956 332.896 C 191.193 332.891 9.727 332.892 7.131 332.882 C 6.368 332.887 5.605 332.891 4.818 332.896 C -0.384 332.857 -0.384 332.857 -2.613 330.628 C -2.925 328.128 -2.925 328.128 -2.613 325.628 C 1.346 322.989 4.775 323.349 9.368 323.355 C 11.19 323.335 28.972 323.204 31.743 323.167 C 33.012 323.175 46.854 321.031 52.18 315.98 C 55.1 312.087 60.387 293.709 60.387 289.628 C 59.075 289.625 57.762 289.621 56.41 289.617 C 44.036 289.58 31.662 289.522 19.288 289.444 C 12.926 289.405 -31.805 289.207 -35.088 289.174 C -36.537 289.182 -49.169 287.617 -54.503 282.988 C -55.176 282.191 -55.176 282.191 -55.863 281.378 C -56.322 280.857 -56.781 280.337 -57.253 279.8 C -61.149 273.576 -62.054 267.804 -61.994 260.64 C -61.998 259.77 -62.003 258.9 -62.008 258.003 C -62.02 255.105 -62.01 252.208 -62.001 249.31 C -62.005 247.225 -62.01 245.14 -62.017 243.055 C -62.03 237.404 -62.009 68.52 -61.994 65.743 C -62 64.946 -62.007 64.149 -62.014 63.328 C -61.931 55.343 -59.994 47.995 -54.361 42.119 C -46.193 35.156 -36.036 36.05 -25.932 36.082 C -24.136 36.074 -22.34 36.063 -20.544 36.051 C -15.658 36.023 -10.774 36.02 -5.888 36.021 Z" fill="#020202" transform="matrix(0.9999999999999999, 0, 0, 0.9999999999999999, -1.4210854715202004e-14, 0)"/>
  <path d="M -33.613 64.628 C 53.507 64.628 140.627 64.628 230.387 64.628 C 230.387 110.828 230.387 157.028 230.387 204.628 C 143.267 204.628 56.147 204.628 -33.613 204.628 C -33.943 183.838 -34.273 163.048 -34.613 141.628 C -35.933 140.638 -37.253 139.648 -38.613 138.628 C -39.144 136.691 -39.144 136.691 -39.113 134.628 C -39.123 133.948 -39.134 133.267 -39.144 132.566 C -38.613 130.628 -38.613 130.628 -34.613 127.628 C -34.283 106.838 -33.953 86.048 -33.613 64.628 Z" fill="#5B82EE" transform="matrix(0.9999999999999999, 0, 0, 0.9999999999999999, -1.4210854715202004e-14, 0)"/>
  <path d="M -37.98 45.494 C -36.998 45.49 230.129 45.119 231.24 45.108 C 237.085 45.158 240.95 45.418 245.386 49.629 C 248.936 54.168 249.885 58.005 249.867 63.81 C 249.871 64.497 249.874 65.183 249.878 65.89 C 249.884 68.178 249.862 70.465 249.841 72.753 C 249.839 74.426 249.84 76.099 249.842 77.772 C 249.843 82.241 249.82 86.709 249.792 91.178 C 249.769 95.375 249.768 99.573 249.765 103.77 C 249.744 116.036 249.688 128.301 249.636 140.566 C 249.554 167.977 249.471 195.387 249.386 223.629 C 149.726 223.629 50.066 223.629 -52.614 223.629 C -52.675 196.197 -52.737 168.766 -52.801 140.504 C -52.828 131.84 -52.856 123.176 -52.884 114.249 C -52.897 103.676 -52.897 103.676 -52.9 98.727 C -52.903 95.268 -52.914 91.809 -52.93 88.35 C -52.951 83.938 -52.982 65.879 -52.974 63.69 C -52.977 62.464 -52.98 61.238 -52.983 59.975 C -52.427 54.934 -50.804 51.703 -47.051 48.316 C -43.689 45.989 -42.018 45.503 -37.98 45.494 Z M -33.614 64.629 C -33.944 85.419 -34.274 106.209 -34.614 127.629 C -35.934 128.619 -37.254 129.609 -38.614 130.629 C -39.241 132.563 -39.241 132.563 -39.114 134.629 C -39.124 135.309 -39.134 135.99 -39.145 136.691 C -38.661 139.231 -38.661 139.231 -34.614 141.629 C -34.284 162.419 -33.954 183.209 -33.614 204.629 C 53.506 204.629 140.626 204.629 230.386 204.629 C 230.386 158.429 230.386 112.229 230.386 64.629 C 143.266 64.629 56.146 64.629 -33.614 64.629 Z" fill="#545757" transform="matrix(0.9999999999999999, 0, 0, 0.9999999999999999, -1.4210854715202004e-14, 0)"/>
  <path d="M -52.613 232.628 C 47.047 232.628 146.707 232.628 249.387 232.628 C 249.387 268.628 249.387 268.628 246.387 274.628 C 242.419 278.209 240.045 279.752 234.751 279.76 C 233.767 279.764 232.784 279.768 231.771 279.771 C 230.683 279.771 229.595 279.77 228.474 279.769 C 227.324 279.772 226.175 279.775 224.99 279.778 C 221.789 279.785 142.21 279.863 129.177 279.866 C 128.342 279.866 47.627 279.95 33.643 279.951 C 25.789 279.952 17.934 279.958 10.08 279.976 C 3.392 279.992 -43.563 279.961 -47.613 276.628 C -48.17 276.175 -48.727 275.721 -49.301 275.253 C -58.058 264.411 -52.613 240.233 -52.613 232.628 Z" fill="#CAC8C1" transform="matrix(0.9999999999999999, 0, 0, 0.9999999999999999, -1.4210854715202004e-14, 0)"/>
  <path d="M -34.942 54.376 C -33.977 54.371 211.372 54.368 214.714 54.363 C 218.332 54.357 232.969 54.377 234.248 54.377 C 236.387 54.628 239.764 59.305 239.768 62.777 C 239.776 64.09 239.789 96.987 239.794 101.348 C 239.799 108.672 239.792 115.996 239.778 123.319 C 239.762 131.796 239.786 179.242 239.796 183.587 C 239.804 187.672 239.765 208.771 239.764 209.951 C 239.64 210.835 239.515 211.718 239.387 212.628 C 236.186 214.762 230.267 214.888 228.79 214.896 C 227.727 214.891 214.556 214.893 210.758 214.887 C 208.043 214.888 189.373 214.904 182.753 214.899 C 177.375 214.894 -30.389 214.889 -32.016 214.896 C -32.982 214.89 -33.947 214.885 -34.942 214.88 C -35.778 214.879 -36.613 214.879 -37.474 214.879 C -39.613 214.628 -39.613 214.628 -42.613 212.628 C -42.987 209.706 -42.987 209.706 -42.986 205.915 C -42.991 204.881 -42.904 150.537 -42.888 148.341 C -42.883 147.09 -42.613 141.628 -40.613 139.628 C -38.113 139.378 -38.113 139.378 -35.613 139.628 C -20.285 154.956 -33.613 182.951 -33.613 204.628 C 53.507 204.628 140.627 204.628 230.387 204.628 C 230.387 158.428 230.387 112.228 230.387 64.628 C 143.267 64.628 56.147 64.628 -33.613 64.628 C -33.613 85.418 -33.613 106.208 -33.613 127.628 C -35.613 129.628 -35.613 129.628 -38.113 129.878 C -40.613 129.628 -40.613 129.628 -42.613 127.628 C -42.874 124.706 -42.74 57.622 -42.613 56.628 C -39.412 54.494 -38.615 54.378 -34.942 54.376 Z" fill="#040608" transform="matrix(0.9999999999999999, 0, 0, 0.9999999999999999, -1.4210854715202004e-14, 0)"/>
  <path d="M 71.387 289.628 C 89.207 289.628 107.027 289.628 125.387 289.628 C 127.367 295.898 129.347 302.168 131.387 308.628 C 134.152 316.65 134.152 316.65 138.387 323.628 C 111.987 323.628 85.587 323.628 58.387 323.628 C 60.367 319.998 62.347 316.368 64.387 312.628 C 65.615 309.108 66.723 305.709 67.699 302.128 C 67.95 301.249 68.201 300.37 68.459 299.464 C 68.918 297.855 69.372 296.244 69.818 294.63 C 70.296 292.95 70.834 291.286 71.387 289.628 Z" fill="#ABAAA5" transform="matrix(0.9999999999999999, 0, 0, 0.9999999999999999, -1.4210854715202004e-14, 0)"/>
  <path d="M 229.387 45.628 C 234.313 45.278 238.216 45.086 242.762 47.191 C 246.827 50.966 249.107 54.652 249.879 60.098 C 249.875 61.323 249.872 62.548 249.868 63.81 C 249.871 64.498 249.715 122.69 249.675 131.511 C 249.63 141.557 249.475 202.969 249.387 223.628 C 244.767 223.628 240.147 223.628 235.387 223.628 C 235.094 216.792 235.094 216.792 235.387 214.628 C 236.872 213.638 236.872 213.638 238.387 212.628 C 238.836 209.823 238.836 209.823 238.748 206.466 C 238.754 204.492 238.454 76.003 238.387 56.628 C 237.443 56.2 237.443 56.2 236.48 55.764 C 233.765 54.291 229.711 46.274 229.387 45.628 Z" fill="#3D3F3F" transform="matrix(0.9999999999999999, 0, 0, 0.9999999999999999, -1.4210854715202004e-14, 0)"/>
  <path d="M 71.387 289.628 C 89.207 289.628 107.027 289.628 125.387 289.628 C 127.367 295.898 129.347 302.168 131.387 308.628 C 133.642 314.923 133.642 314.923 136.574 320.628 C 137.173 321.618 137.771 322.608 138.387 323.628 C 128.245 324.828 128.245 324.828 124.172 322.199 C 119.828 317.465 115.387 310.248 115.387 303.628 C 99.547 303.628 83.707 303.628 67.387 303.628 C 70.387 292.628 70.387 292.628 71.387 289.628 Z" fill="#8E8E8A" transform="matrix(0.9999999999999999, 0, 0, 0.9999999999999999, -1.4210854715202004e-14, 0)"/>
  <path d="M -52.613 232.628 C 47.047 232.628 146.707 232.628 249.387 232.628 C 249.387 268.628 249.387 268.628 246.387 274.628 C 242.199 278.408 239.848 279.763 234.262 279.691 C 233.352 279.682 232.442 279.673 231.504 279.664 C 230.805 279.652 230.107 279.64 229.387 279.628 C 230.396 277.936 231.405 276.243 232.414 274.55 C 238.175 263.168 235.214 239.69 235.387 233.628 C 140.677 233.628 45.967 233.628 -51.613 233.628 C -51.613 245.178 -51.613 256.728 -51.613 268.628 C -51.943 268.628 -52.273 268.628 -52.613 268.628 C -52.613 256.748 -52.613 244.868 -52.613 232.628 Z" fill="#94938E" transform="matrix(0.9999999999999999, 0, 0, 0.9999999999999999, -1.4210854715202004e-14, 0)"/>
  <path d="M 105.137 243.878 C 108.563 246.543 110.993 248.448 112.387 252.628 C 112.769 257.293 112.866 259.67 110.762 263.878 C 107.768 267.345 105.079 270.101 100.434 271.011 C 95.337 271.303 92.313 270.019 88.387 266.628 C 85.554 263.348 84.136 260.863 83.949 256.566 C 84.601 250.699 87.002 247.466 91.387 243.628 C 96.176 242.032 100.557 241.797 105.137 243.878 Z" fill="#050505" transform="matrix(0.9999999999999999, 0, 0, 0.9999999999999999, -1.4210854715202004e-14, 0)"/>
  <path d="M 96.387 251.628 C 100.942 252.184 100.942 252.184 102.387 253.628 C 102.512 256.628 102.512 256.628 102.387 259.628 C 101.387 260.628 101.387 260.628 98.449 260.816 C 95.387 260.628 95.387 260.628 93.387 258.628 C 93.717 255.331 94.01 254.006 96.387 251.628 Z" fill="#EDEDED" transform="matrix(0.9999999999999999, 0, 0, 0.9999999999999999, -1.4210854715202004e-14, 0)"/>
</svg>