<?xml version="1.0" encoding="UTF-8"?>
<svg version="1.1" xmlns="http://www.w3.org/2000/svg" width="446" height="448">
<path d="M0 0 C3.17023318 0.02369818 6.34047548 0.04229097 9.51074219 0.06091309 C14.92025274 0.09612965 20.32905021 0.15584103 25.73812866 0.23236084 C27.80448211 0.25909214 29.8709279 0.27951614 31.93740845 0.29327393 C34.81663695 0.31450115 37.69443875 0.36081522 40.57324219 0.41345215 C41.41709473 0.41469086 42.26094727 0.41592957 43.13037109 0.41720581 C49.97701078 0.58653745 55.34326463 2.45889146 60.36621094 7.21032715 C65.51031361 15.7838316 65.4667898 24.23076636 65.33496094 33.89855957 C65.30364052 36.21553655 65.29396148 38.53183057 65.28808594 40.84899902 C65.27891947 42.33793954 65.26854483 43.82687321 65.25683594 45.3157959 C65.25258606 46.00030319 65.24833618 46.68481049 65.24395752 47.39006042 C65.18527138 51.3678302 64.71174659 55.10763929 64.05371094 59.02282715 C64.55175046 61.79820685 64.55175046 61.79820685 65.49121094 64.39782715 C65.77867187 65.27181152 66.06613281 66.1457959 66.36230469 67.04626465 C66.59046875 67.69853027 66.81863281 68.3507959 67.05371094 69.02282715 C69.97917534 69.24643395 69.97917534 69.24643395 72.05371094 68.02282715 C81.07752373 67.1738125 88.59845489 67.54102123 96.05371094 73.02282715 C99.49068842 76.2306728 102.24394076 79.65759446 104.05371094 84.02282715 C104.05371094 85.34282715 104.05371094 86.66282715 104.05371094 88.02282715 C105.41496094 87.52782715 105.41496094 87.52782715 106.80371094 87.02282715 C114.09891163 85.0037514 121.48949812 84.90354631 128.42871094 88.08532715 C135.97495015 92.39055337 139.47143429 98.32756621 143.05371094 106.02282715 C143.38371094 106.35282715 143.71371094 106.68282715 144.05371094 107.02282715 C146.0570843 106.84991695 148.05675725 106.63357863 150.05371094 106.39782715 C158.97616844 105.66647817 165.27361576 107.60166276 172.26074219 113.2220459 C180.12899241 121.12458044 180.20887317 130.6496073 180.22167969 141.1282959 C180.22500809 142.0887532 180.22833649 143.04921051 180.23176575 144.03877258 C180.23681035 146.0651095 180.23917484 148.09145466 180.23901367 150.11779785 C180.24119173 153.1832892 180.25935078 156.24841535 180.27832031 159.31384277 C180.31802078 172.49634677 179.62456306 184.54654016 175.24121094 197.08532715 C174.97622803 197.86279297 174.71124512 198.64025879 174.43823242 199.44128418 C173.01778537 203.52927542 171.47667713 207.48591975 169.61621094 211.39782715 C164.07638999 223.11110869 158.36573022 235.84050157 160.05371094 249.02282715 C160.93929687 249.10661621 161.82488281 249.19040527 162.73730469 249.2767334 C169.28487979 250.74974499 174.19329402 256.16032203 177.77246094 261.6673584 C182.21443946 270.28014816 182.29217095 278.14929735 182.36621094 287.71032715 C182.39521484 288.93944824 182.42421875 290.16856934 182.45410156 291.43493652 C182.51548188 300.28786634 181.62233884 307.59667313 175.94042969 314.6439209 C175.2146875 315.24333496 174.48894531 315.84274902 173.74121094 316.46032715 C173.02320313 317.07778809 172.30519531 317.69524902 171.56542969 318.3314209 C164.22194301 323.27656823 158.08139831 323.46425469 149.39233398 323.44274902 C148.12965698 323.45121857 146.86697998 323.45968811 145.56604004 323.46841431 C142.11748659 323.49054844 138.66917265 323.49356501 135.22055793 323.49166679 C132.33317652 323.49154669 129.44584511 323.50012727 126.5584777 323.50844431 C119.74085517 323.52765013 112.92335506 323.53057292 106.10571289 323.52380371 C99.09313501 323.51716849 92.08108385 323.5400123 85.06861275 323.57711744 C79.0301181 323.60789923 72.99179212 323.61916523 66.95322067 323.61528063 C63.35455904 323.61322142 59.75630727 323.61856229 56.15772057 323.64317322 C52.13922114 323.66975004 48.12182045 323.65564838 44.10327148 323.63806152 C42.92527481 323.65132477 41.74727814 323.66458801 40.53358459 323.67825317 C31.88118697 323.59055596 25.28624725 321.60420403 18.61621094 315.96032715 C8.50739811 303.42539924 9.65197484 286.10841396 11.30566406 270.67077637 C12.56054071 263.11333814 15.74502591 258.23961805 21.72558594 253.54626465 C24.7627224 251.5588767 27.61983895 250.19180485 31.05371094 249.02282715 C31.62924964 237.89574558 25.65645505 230.23046361 18.46777344 222.0970459 C17.07144355 220.57825264 15.66452278 219.0702237 14.25195312 217.56652832 C11.11871665 214.22337144 8.17422045 210.78621784 5.30371094 207.21032715 C2.22250425 203.3767971 -0.96323211 199.83895665 -4.53613281 196.46032715 C-5.94628906 195.02282715 -5.94628906 195.02282715 -7.94628906 192.02282715 C-10.78468195 191.5784392 -10.78468195 191.5784392 -14.16503906 191.6697998 C-15.47400146 191.6661441 -16.78296387 191.6624884 -18.1315918 191.65872192 C-19.18526443 191.66592192 -19.18526443 191.66592192 -20.26022339 191.67326736 C-22.46455403 191.68700347 -24.66798372 191.68056761 -26.87231445 191.66842651 C-33.14035828 191.63747933 -39.408197 191.64220106 -45.67626953 191.66247559 C-49.51083375 191.67346889 -53.3447277 191.66003424 -57.17919922 191.6325798 C-58.63345938 191.62717716 -60.08778816 191.63110536 -61.54199219 191.64497757 C-72.04479791 191.74389384 -79.71517013 190.38209292 -87.94628906 183.52282715 C-92.26698282 178.12195995 -92.27726958 173.0643119 -92.31738281 166.4095459 C-92.32641129 165.48116409 -92.33543976 164.55278229 -92.34474182 163.5962677 C-92.3592215 161.63537814 -92.36812538 159.67444051 -92.37182617 157.71350098 C-92.38370877 154.73048458 -92.43290469 151.74954721 -92.48339844 148.76696777 C-92.49286532 146.85617051 -92.50009909 144.94536062 -92.50488281 143.0345459 C-92.53418129 141.70915047 -92.53418129 141.70915047 -92.56407166 140.35697937 C-92.51852705 134.03118443 -90.91634129 129.9544489 -86.94628906 125.02282715 C-80.99489612 119.22403402 -74.7192248 118.72805096 -66.81982422 118.79577637 C-65.92161957 118.79548431 -65.02341492 118.79519226 -64.09799194 118.79489136 C-61.14367853 118.79627922 -58.18962065 118.81181483 -55.23535156 118.82751465 C-53.18126564 118.83124671 -51.12717794 118.83409277 -49.0730896 118.83609009 C-43.6775416 118.84371132 -38.28210198 118.86334688 -32.88659668 118.88549805 C-27.37656113 118.90598899 -21.86650801 118.91509875 -16.35644531 118.9251709 C-5.55301239 118.94659416 5.25034025 118.98071191 16.05371094 119.02282715 C16.00916472 114.36313873 15.93893119 109.70475526 15.84619141 105.04577637 C15.81819015 103.4651536 15.79687329 101.88439623 15.78271484 100.30358887 C15.68527582 88.19942203 15.68527582 88.19942203 11.90234375 76.78601074 C11.05371094 75.02282715 11.05371094 75.02282715 11.05371094 73.02282715 C1.06370469 72.23055899 -8.7958068 71.9306316 -18.82128906 72.02282715 C-24.86291576 72.04453423 -30.90465046 72.0356883 -36.94628906 72.02282715 C-37.81715149 72.02107483 -38.68801392 72.01932251 -39.58526611 72.01751709 C-45.11215124 72.00152373 -50.63758646 71.95302649 -56.16387939 71.87023926 C-57.96013456 71.84718296 -59.75652254 71.83269284 -61.55291748 71.82727051 C-78.38572711 71.76585557 -78.38572711 71.76585557 -86.03833008 67.96691895 C-90.93774739 62.97471676 -92.39665692 56.6135771 -92.5020752 49.80479431 C-92.49397827 48.95764359 -92.48588135 48.11049286 -92.47753906 47.2376709 C-92.48136597 46.33714493 -92.48519287 45.43661896 -92.48913574 44.50880432 C-92.49183928 42.61885449 -92.48458815 40.72886623 -92.46777344 38.83898926 C-92.44631547 35.96386602 -92.46764081 33.09123393 -92.49316406 30.21618652 C-92.490521 28.36917586 -92.48539646 26.52216674 -92.47753906 24.6751709 C-92.48563599 23.82599594 -92.49373291 22.97682098 -92.5020752 22.10191345 C-92.40014152 15.54367859 -90.8364951 9.95032617 -86.12988281 5.1829834 C-85.55367187 4.82075684 -84.97746094 4.45853027 -84.38378906 4.08532715 C-83.51560547 3.51491699 -83.51560547 3.51491699 -82.62988281 2.9329834 C-78.87602332 0.90363476 -75.55278373 0.83384619 -71.36035156 0.7064209 C-70.6890773 0.68554916 -70.01780304 0.66467743 -69.32618713 0.64317322 C-67.07468178 0.57603009 -64.82307334 0.517318 -62.57128906 0.46032715 C-61.7833194 0.43948059 -60.99534973 0.41863403 -60.1835022 0.39715576 C-40.12327491 -0.12173165 -20.06529912 -0.15567904 0 0 Z " fill="#050505" transform="translate(233.9462890625,124.9771728515625)"/>
<path d="M0 0 C2.90959597 1.86190195 5.38953089 3.83138247 7.8984375 6.21484375 C7.8984375 6.87484375 7.8984375 7.53484375 7.8984375 8.21484375 C8.48778076 8.48111572 9.07712402 8.7473877 9.68432617 9.02172852 C22.80890572 16.09415329 32.85499161 31.63290534 37.171875 45.390625 C38.63285955 51.06961333 39.08185703 56.61146561 39.21484375 62.45703125 C39.23562485 63.22540314 39.25640594 63.99377502 39.27781677 64.78543091 C39.34277219 67.22015142 39.40194388 69.65497222 39.4609375 72.08984375 C39.5041742 73.74870795 39.54779007 75.40756231 39.59179688 77.06640625 C39.69839753 81.11578479 39.7998142 85.16526338 39.8984375 89.21484375 C41.5484375 89.21484375 43.1984375 89.21484375 44.8984375 89.21484375 C45.2284375 77.99484375 45.5584375 66.77484375 45.8984375 55.21484375 C52.08945994 52.11933253 55.26345749 51.42470747 61.8984375 52.21484375 C67.53068452 54.23395117 71.15139674 57.66662411 74.51098633 62.56689453 C76.60610032 68.07546278 76.379426 73.4223567 76.41015625 79.26953125 C76.42810745 80.52621613 76.44605865 81.782901 76.46455383 83.07766724 C76.50944661 86.40179999 76.5417979 89.72556714 76.56799316 93.04986572 C76.59789084 96.44874297 76.64438923 99.84738973 76.68945312 103.24609375 C76.77435384 109.90223701 76.84271599 116.55839571 76.8984375 123.21484375 C78.5484375 123.21484375 80.1984375 123.21484375 81.8984375 123.21484375 C81.90208313 122.60762985 81.90572876 122.00041595 81.90948486 121.37480164 C81.95124109 115.06433609 82.02053771 108.75460256 82.10595703 102.44458008 C82.13421204 100.0885347 82.1554039 97.73239373 82.16943359 95.3762207 C82.19079995 91.99250179 82.2374192 88.60993778 82.2890625 85.2265625 C82.29029114 84.17023117 82.29151978 83.11389984 82.29278564 82.02555847 C82.31250427 81.04476822 82.3322229 80.06397797 82.35253906 79.0534668 C82.36142151 78.1896489 82.37030396 77.32583099 82.37945557 76.43583679 C82.8984375 74.21484375 82.8984375 74.21484375 84.74505615 72.47492981 C89.35308431 69.77846731 93.70740597 69.75024196 98.8984375 70.21484375 C104.79797567 72.10269596 108.21806617 76.43948591 111.8984375 81.21484375 C113.07402965 83.56602805 113.05360213 85.04202289 113.10375977 87.66455078 C113.12370499 88.58535431 113.14365021 89.50615784 113.16419983 90.4548645 C113.18926857 91.94867142 113.18926857 91.94867142 113.21484375 93.47265625 C113.23562485 94.49084442 113.25640594 95.50903259 113.27781677 96.55807495 C113.34333216 99.8185943 113.40220652 103.07919581 113.4609375 106.33984375 C113.50412082 108.54688358 113.54773505 110.75391503 113.59179688 112.9609375 C113.69901555 118.37881876 113.80077824 123.79678221 113.8984375 129.21484375 C115.55458407 129.59703142 117.22300774 129.92879477 118.8984375 130.21484375 C120.92966825 128.183613 120.15513368 124.03715509 120.21484375 121.2421875 C120.2460154 120.0457235 120.2460154 120.0457235 120.27781677 118.8250885 C120.34339908 116.26759764 120.40223717 113.71000095 120.4609375 111.15234375 C120.50411449 109.42251493 120.54772851 107.69269696 120.59179688 105.96289062 C120.69908922 101.71365115 120.80033176 97.46430485 120.8984375 93.21484375 C126.1118182 90.41144838 131.08068189 90.73003078 136.8984375 91.21484375 C142.35091948 92.93136586 145.6862384 96.61104048 148.8984375 101.21484375 C149.88829739 104.18442341 150.04190353 106.1888022 150.07543945 109.2902832 C150.09469231 110.8438427 150.09469231 110.8438427 150.11433411 112.42878723 C150.12172104 113.5505687 150.12910797 114.67235016 150.13671875 115.828125 C150.1447905 116.98926315 150.15286224 118.15040131 150.16117859 119.34672546 C150.17502515 121.81227119 150.18574474 124.27783612 150.19360352 126.7434082 C150.21069545 130.47450522 150.25456328 134.2046879 150.29882812 137.93554688 C150.45190034 161.24904301 150.45190034 161.24904301 145.8984375 172.21484375 C145.18312866 173.93924683 145.18312866 173.93924683 144.45336914 175.69848633 C143.50357429 177.92383141 142.53461891 180.14105702 141.55078125 182.3515625 C139.56107907 186.90169404 137.85468996 191.55251897 136.1484375 196.21484375 C135.85477295 197.01623779 135.5611084 197.81763184 135.25854492 198.64331055 C131.90031968 207.87527464 130.63835725 214.85596731 129.8984375 225.21484375 C92.9384375 225.21484375 55.9784375 225.21484375 17.8984375 225.21484375 C16.9084375 221.58484375 15.9184375 217.95484375 14.8984375 214.21484375 C11.35180684 205.61695124 6.2948092 199.88447816 -0.1015625 193.21484375 C-1.23654729 191.95291987 -2.36259575 190.68285945 -3.4765625 189.40234375 C-4.02570313 188.77199219 -4.57484375 188.14164063 -5.140625 187.4921875 C-6.70385737 185.67672043 -8.26006246 183.85592349 -9.8125 182.03125 C-15.6382058 175.19063941 -21.55937186 168.47097816 -27.65625 161.87109375 C-30.19685937 159.11132639 -32.69265436 156.32250296 -35.140625 153.48046875 C-36.78603778 151.57939423 -38.4510833 149.70007152 -40.125 147.82421875 C-41.22166901 146.57970445 -42.31802092 145.33491066 -43.4140625 144.08984375 C-43.94249756 143.50348145 -44.47093262 142.91711914 -45.01538086 142.31298828 C-49.84140382 136.78795957 -51.55659503 131.72025083 -51.34765625 124.3828125 C-50.726441 118.91020195 -47.58795623 115.11160481 -43.6953125 111.4765625 C-39.19633815 107.91487447 -34.86052657 108.05401245 -29.4453125 108.6328125 C-23.92527148 110.00362269 -20.12272568 112.82707494 -16.2109375 116.84765625 C-15.33695313 117.73582031 -14.46296875 118.62398438 -13.5625 119.5390625 C-12.22058594 120.92544922 -12.22058594 120.92544922 -10.8515625 122.33984375 C-9.05678825 124.17783495 -7.26001573 126.0138777 -5.4609375 127.84765625 C-4.67170898 128.66121582 -3.88248047 129.47477539 -3.06933594 130.31298828 C-1.24154308 132.26986334 -1.24154308 132.26986334 0.8984375 133.21484375 C0.88349391 123.9037748 0.84159507 114.59331358 0.76634693 105.28253555 C0.73222083 100.95798207 0.70698954 96.63377647 0.70288086 92.30908203 C0.69856675 88.12659772 0.66984997 83.94489622 0.62500572 79.76265717 C0.61212924 78.1761203 0.60768766 76.58948927 0.61228371 75.0029068 C0.63833433 63.26721242 -0.55684634 51.97040107 -9.2265625 43.15234375 C-9.99484375 42.35183594 -10.763125 41.55132812 -11.5546875 40.7265625 C-13.37339065 38.93296415 -15.19608533 37.14410496 -17.0234375 35.359375 C-17.51440918 34.87670166 -18.00538086 34.39402832 -18.51123047 33.89672852 C-19.90208829 32.53761803 -21.30998202 31.1960058 -22.71875 29.85546875 C-27.44893693 24.61349111 -28.79085733 19.94875253 -28.57421875 13.03515625 C-27.63136304 7.40919077 -24.71410615 3.20381731 -20.203125 -0.23046875 C-13.19022129 -4.19428389 -6.93909335 -3.85352812 0 0 Z " fill="#F6F8F9" transform="translate(256.1015625,147.78515625)"/>
<path d="M0 0 C1.21726776 -0.00700928 2.43453552 -0.01401855 3.68869019 -0.02124023 C7.00718391 -0.03576924 10.32467225 -0.03244889 13.64310837 -0.01972389 C17.12805202 -0.00954357 20.61295492 -0.01900346 24.09790039 -0.02526855 C29.9484827 -0.03253042 35.79886254 -0.02299589 41.64941406 -0.00390625 C48.3978692 0.01785991 55.14584082 0.01080748 61.89428425 -0.01121187 C67.70518008 -0.02940779 73.51593099 -0.03190383 79.32684612 -0.0214572 C82.79009098 -0.01524516 86.25310913 -0.01432292 89.71633911 -0.02760315 C93.57931068 -0.04138354 97.44174771 -0.0222436 101.3046875 0 C102.44154999 -0.00809692 103.57841248 -0.01619385 104.74972534 -0.02453613 C112.53290913 0.05831327 117.92065704 1.24035069 123.9296875 6.51757812 C124.75146484 7.50757813 124.75146484 7.50757813 125.58984375 8.51757812 C126.15574219 9.17757813 126.72164062 9.83757813 127.3046875 10.51757812 C130.17380289 14.77551169 129.82668926 19.45135744 129.85546875 24.43164062 C129.86116882 25.20132172 129.8668689 25.97100281 129.8727417 26.76400757 C129.88217434 28.39295079 129.88871878 30.02191295 129.89257812 31.65087891 C129.90222903 34.11330658 129.93324505 36.57487932 129.96484375 39.03710938 C130.0959685 57.93586844 130.0959685 57.93586844 124.8203125 64.95507812 C124.16675781 65.47070312 123.51320313 65.98632812 122.83984375 66.51757812 C122.19402344 67.05382812 121.54820312 67.59007813 120.8828125 68.14257812 C114.46057242 72.10164732 108.02054 71.80831845 100.71533203 71.79223633 C99.51786346 71.79734726 98.3203949 71.80245819 97.0866394 71.807724 C93.81378708 71.81921844 90.54109233 71.82169733 87.26822519 71.8191607 C84.5298371 71.81808797 81.79147214 71.82298213 79.05308902 71.82776612 C72.58892312 71.83884705 66.12481533 71.8393069 59.66064453 71.83325195 C53.00660782 71.82721467 46.3527827 71.83952003 39.69878209 71.86082202 C33.97287979 71.87847436 28.24704462 71.88443362 22.52111614 71.88118428 C19.10704788 71.87937682 15.69313052 71.88195341 12.27908707 71.89589882 C8.46860782 71.90825525 4.65861616 71.90147548 0.84814453 71.88989258 C-0.83381012 71.90135818 -0.83381012 71.90135818 -2.54974365 71.91305542 C-9.48902694 71.86650749 -15.84735239 71.4908092 -21.37109375 66.79882812 C-21.81710938 66.21101563 -22.263125 65.62320313 -22.72265625 65.01757812 C-23.18414062 64.42976563 -23.645625 63.84195313 -24.12109375 63.23632812 C-26.47020449 59.94458059 -27.60047318 58.10556419 -27.68579102 54.08129883 C-27.7082338 53.18639236 -27.73067657 52.2914859 -27.75379944 51.36946106 C-27.76543625 50.4038475 -27.77707306 49.43823395 -27.7890625 48.44335938 C-27.80972023 46.94665962 -27.80972023 46.94665962 -27.83079529 45.41972351 C-27.85408016 43.30566966 -27.87133901 41.19154219 -27.88305664 39.07739258 C-27.90991652 35.8588048 -27.98479723 32.64353736 -28.06054688 29.42578125 C-28.07721065 27.36916269 -28.09097485 25.31251819 -28.1015625 23.25585938 C-28.13141739 22.30036697 -28.16127228 21.34487457 -28.19203186 20.36042786 C-28.15179571 14.17790524 -26.81645983 10.8370481 -22.63365173 6.28068542 C-15.32816673 0.64622375 -9.11365353 -0.06490896 0 0 Z " fill="#040404" transform="translate(169.34765625,6.482421875)"/>
<path d="M0 0 C1.14724045 -0.00511093 2.2944809 -0.01022186 3.47648621 -0.01548767 C7.25862891 -0.02935666 11.04058883 -0.02842885 14.82275391 -0.02612305 C17.45919868 -0.0300115 20.09564284 -0.03434648 22.73208618 -0.03910828 C28.25483818 -0.04730798 33.77753899 -0.04642225 39.30029297 -0.04101562 C45.66633951 -0.03497885 52.03216487 -0.04728422 58.39817369 -0.06858569 C64.54325107 -0.08838497 70.68822568 -0.09136841 76.83333206 -0.08785057 C79.43835596 -0.08836301 82.04338345 -0.09358624 84.64838791 -0.10366249 C88.29571171 -0.11603915 91.94252769 -0.10922713 95.58984375 -0.09765625 C97.19391838 -0.10912186 97.19391838 -0.10912186 98.83039856 -0.12081909 C106.45787932 -0.06750629 114.39093122 0.75197456 120.29931641 6.0871582 C120.83298828 6.54735352 121.36666016 7.00754883 121.91650391 7.48168945 C127.3541422 13.94768939 126.95037873 20.98423651 126.92529297 28.9597168 C126.92432176 31.13766252 126.96596705 33.31206487 127.01025391 35.48950195 C127.07574092 43.09854716 126.89089949 49.42985932 121.42431641 55.2746582 C117.54185835 59.22122554 113.49783156 61.96205232 107.8948698 62.53192711 C106.54574111 62.53695464 106.54574111 62.53695464 105.1693573 62.54208374 C103.61135658 62.55487869 103.61135658 62.55487869 102.0218811 62.56793213 C100.89293427 62.56702576 99.76398743 62.56611938 98.60083008 62.56518555 C97.40350754 62.57190277 96.206185 62.57862 94.97257996 62.58554077 C91.69554422 62.60126803 88.41866073 62.60789493 85.14159179 62.60917234 C83.09134006 62.61059636 81.04111469 62.61487072 78.99086952 62.62016678 C71.82991481 62.63865835 64.66903444 62.64683862 57.50805664 62.64526367 C50.8466034 62.644063 44.18547454 62.66515273 37.52410334 62.696751 C31.7939732 62.72295742 26.0639487 62.73362912 20.33375913 62.73235285 C16.91626497 62.73184443 13.49905913 62.73746049 10.08162498 62.75870895 C6.26613939 62.778332 2.45148568 62.77254405 -1.36401367 62.76049805 C-3.04832489 62.77735657 -3.04832489 62.77735657 -4.7666626 62.79455566 C-12.33439355 62.73392735 -17.70629865 61.61368343 -23.59912109 56.52856445 C-24.04513672 55.97040039 -24.49115234 55.41223633 -24.95068359 54.8371582 C-25.41216797 54.28157227 -25.87365234 53.72598633 -26.34912109 53.15356445 C-30.38397872 46.97277936 -29.94799968 40.67417628 -29.94628906 33.51953125 C-29.95064962 31.47806534 -29.98697225 29.4387874 -30.02490234 27.39770508 C-30.05049582 18.75990589 -29.53006244 13.04940936 -23.89990234 6.2512207 C-23.35978516 5.80520508 -22.81966797 5.35918945 -22.26318359 4.8996582 C-21.73080078 4.43817383 -21.19841797 3.97668945 -20.64990234 3.5012207 C-14.19597268 -0.31522734 -7.2690491 -0.01677654 0 0 Z " fill="#A2A2A2" transform="translate(281.57568359375,379.725341796875)"/>
<path d="M0 0 C1.80336319 -0.00430527 1.80336319 -0.00430527 3.64315796 -0.00869751 C6.1831713 -0.01073467 8.72320046 -0.00522924 11.26318359 0.00732422 C15.11462336 0.02329726 18.96500018 0.00750624 22.81640625 -0.01171875 C25.29427312 -0.00973461 27.77213933 -0.00588742 30.25 0 C31.95381332 -0.00910904 31.95381332 -0.00910904 33.69204712 -0.0184021 C47.47012031 0.10030573 58.86346021 2.89312385 69.3984375 12.0234375 C73.85936416 16.66280123 75.70889329 22.32204073 77.5234375 28.3984375 C77.70082458 28.94180252 77.87821167 29.48516754 78.06097412 30.04499817 C78.74962379 33.54948152 78.67944307 37.04663456 78.68457031 40.60424805 C78.69201767 41.84164986 78.69201767 41.84164986 78.69961548 43.10404968 C78.71420994 45.83109374 78.72103553 48.55807957 78.7265625 51.28515625 C78.73231736 53.18601991 78.73807505 55.08688355 78.74383545 56.98774719 C78.75433853 60.97482574 78.76018534 64.96188417 78.76367188 68.94897461 C78.76914697 74.0419276 78.79315688 79.13461195 78.82164383 84.22748089 C78.84033012 88.15587625 78.84547905 92.08420777 78.84700775 96.01264381 C78.85002264 97.88920366 78.85801161 99.7657627 78.87119293 101.64227867 C78.88837468 104.27694074 78.88634356 106.91095792 78.87988281 109.5456543 C78.8890976 110.31117615 78.89831238 111.076698 78.9078064 111.86541748 C78.83143158 121.87942693 74.94848862 129.84031123 68.5234375 137.3984375 C61.17151398 144.3910002 51.59050006 148.44190975 41.5234375 149.3984375 C38.4430586 149.27503953 35.57620306 148.89081904 32.5234375 148.3984375 C32.57564453 149.73648438 32.57564453 149.73648438 32.62890625 151.1015625 C32.65597656 152.27203125 32.68304688 153.4425 32.7109375 154.6484375 C32.76314453 156.38867188 32.76314453 156.38867188 32.81640625 158.1640625 C32.50326684 161.62112157 31.86634642 162.91409313 29.5234375 165.3984375 C23.74938751 163.77715253 18.79542676 160.98035486 13.5859375 158.0859375 C12.63750977 157.5612085 11.68908203 157.03647949 10.71191406 156.49584961 C8.69561339 155.37856279 6.68050722 154.25911803 4.66650391 153.13769531 C1.4672471 151.36734379 -1.74724573 149.62738291 -4.96484375 147.890625 C-7.05248554 146.74813047 -9.13973649 145.60492143 -11.2265625 144.4609375 C-12.22034912 143.93008545 -13.21413574 143.3992334 -14.23803711 142.85229492 C-15.15721924 142.34287354 -16.07640137 141.83345215 -17.0234375 141.30859375 C-17.83651367 140.86652588 -18.64958984 140.42445801 -19.48730469 139.96899414 C-21.92609417 138.04352375 -22.5648108 136.32708512 -23.4765625 133.3984375 C-20.81938535 130.57783487 -18.25836513 128.47382157 -14.9140625 126.5234375 C-14.02332031 126.00394531 -13.13257813 125.48445313 -12.21484375 124.94921875 C-8.79471732 123.01228552 -5.3555531 121.11676505 -1.89453125 119.25390625 C0.94673825 117.71150281 3.77408861 116.14861235 6.59765625 114.57421875 C7.95044678 113.82241333 7.95044678 113.82241333 9.33056641 113.05541992 C11.15361232 112.04180898 12.97493389 111.02508988 14.79443359 110.00512695 C15.63441895 109.53937256 16.4744043 109.07361816 17.33984375 108.59375 C18.09724854 108.17109863 18.85465332 107.74844727 19.63500977 107.31298828 C21.5234375 106.3984375 21.5234375 106.3984375 23.5234375 106.3984375 C23.5234375 105.7384375 23.5234375 105.0784375 23.5234375 104.3984375 C26.8359375 104.1484375 26.8359375 104.1484375 30.5234375 104.3984375 C32.73513692 106.5699242 33.46489496 107.88326318 33.81640625 110.9765625 C33.78160156 111.85828125 33.74679687 112.74 33.7109375 113.6484375 C33.67033203 114.98648438 33.67033203 114.98648438 33.62890625 116.3515625 C33.57669922 117.36476562 33.57669922 117.36476562 33.5234375 118.3984375 C35.2483373 118.67635481 36.97883965 118.91962669 38.7109375 119.1484375 C40.15533203 119.35726562 40.15533203 119.35726562 41.62890625 119.5703125 C45.55611733 119.33711778 46.82582253 118.23433439 49.5234375 115.3984375 C50.01838829 112.58768866 50.1892211 110.38016564 50.13867188 107.57226562 C50.14699539 106.3959684 50.14699539 106.3959684 50.15548706 105.19590759 C50.16728745 102.6065438 50.143006 100.01892859 50.1171875 97.4296875 C50.11547642 95.62894775 50.11554205 93.82820551 50.11730957 92.02746582 C50.11565611 88.25455883 50.0969537 84.48224586 50.06542969 80.70947266 C50.02575183 75.8737597 50.02138422 71.03882488 50.02889252 66.20298004 C50.03196234 62.48489251 50.01984129 58.76697987 50.00276184 55.04893494 C49.99573142 53.2659566 49.99260736 51.48295843 49.99345398 49.69996643 C49.99165584 47.20781649 49.9702735 44.71659818 49.94335938 42.22460938 C49.94628998 41.48786484 49.94922058 40.7511203 49.95223999 39.99205017 C49.90238195 36.99935141 49.66226157 34.69105585 48.37219238 31.97180176 C44.60898273 28.76916001 39.52435914 29.27366557 34.796875 29.2565918 C33.69553223 29.24955734 32.59418945 29.24252289 31.45947266 29.23527527 C30.28433105 29.23111099 29.10918945 29.22694672 27.8984375 29.22265625 C25.39322067 29.1994686 22.88801229 29.17535171 20.3828125 29.15039062 C16.4459049 29.1152221 12.50931156 29.08588949 8.57226562 29.07250977 C4.7639409 29.05704618 0.95652285 29.01685993 -2.8515625 28.97265625 C-4.0267041 28.97456467 -5.2018457 28.97647308 -6.41259766 28.97843933 C-12.69807527 28.88432384 -16.75432168 28.73095479 -21.4765625 24.3984375 C-24.09248168 20.56175604 -25.09319385 17.10796198 -24.88671875 12.421875 C-24.13566387 8.71667092 -22.31560095 5.86309725 -19.4765625 3.3984375 C-13.08623724 -0.14855946 -7.19870654 -0.03807904 0 0 Z " fill="#040404" transform="translate(333.4765625,27.6015625)"/>
<path d="M0 0 C0.65782974 0.00288151 1.31565948 0.00576302 1.99342346 0.00873184 C5.47058231 0.02519816 8.9473518 0.0547542 12.42431641 0.09472656 C15.99883473 0.13308348 19.57166945 0.12475755 23.14627838 0.10598564 C25.91269921 0.10020138 28.67795742 0.12979168 31.44407654 0.1687355 C33.39758028 0.18712423 35.35132286 0.16779151 37.30480957 0.14767456 C45.98988293 0.33521409 45.98988293 0.33521409 49.59204102 3.03961182 C53.63327122 7.57312196 55.6045982 10.95899192 55.4921875 17.1640625 C55.0305368 20.69898784 53.55267674 22.62466438 51.21875 25.2578125 C44.76208366 30.17781804 38.67127689 29.79858616 30.76953125 29.7265625 C28.79848326 29.73733237 26.82743509 29.74812402 24.85639477 29.76021576 C21.41465822 29.77600785 17.97299888 29.76615552 14.53125 29.7578125 C10.4108376 29.74785228 6.29082218 29.74238199 2.17045593 29.7677002 C-0.39037152 29.78172384 -2.95137022 29.77798825 -5.51213074 29.75476074 C-6.67045914 29.7615686 -7.82878754 29.76837646 -9.0222168 29.77539062 C-10.04034958 29.77220825 -11.05848236 29.76902588 -12.10746765 29.76574707 C-14.86435016 30.0902473 -14.86435016 30.0902473 -17.11082458 31.81802368 C-19.35846027 35.10087388 -19.32827719 37.9357046 -19.26708984 41.77685547 C-19.27088654 42.52858032 -19.27468323 43.28030518 -19.27859497 44.05480957 C-19.28599712 46.53696583 -19.26461997 49.01794793 -19.2421875 51.5 C-19.23980223 53.22868716 -19.23889793 54.95737694 -19.2394104 56.68606567 C-19.23628272 60.3092675 -19.2197233 63.93207354 -19.19287109 67.55517578 C-19.15894216 72.19104642 -19.15124118 76.82648122 -19.15276146 81.46246147 C-19.15221648 85.03305189 -19.14122802 88.60354772 -19.12675858 92.1741066 C-19.12040945 93.88286753 -19.11645611 95.59163914 -19.11497116 97.30041122 C-19.11061514 99.69378483 -19.09306381 102.08670501 -19.07177734 104.47998047 C-19.07268372 105.18148224 -19.07359009 105.88298401 -19.07452393 106.60574341 C-19.01968847 110.84069769 -18.45709931 114.3569543 -16.78125 118.2578125 C-14.01672967 119.64007266 -11.7351137 119.35306637 -8.65625 119.3203125 C-7.56054688 119.31128906 -6.46484375 119.30226563 -5.3359375 119.29296875 C-4.49289063 119.28136719 -3.64984375 119.26976562 -2.78125 119.2578125 C-2.73226562 118.34257812 -2.68328125 117.42734375 -2.6328125 116.484375 C-2.55804688 115.29585938 -2.48328125 114.10734375 -2.40625 112.8828125 C-2.30183594 111.10777344 -2.30183594 111.10777344 -2.1953125 109.296875 C-1.78125 106.2578125 -1.78125 106.2578125 0.21875 104.2578125 C3.34375 104.1328125 3.34375 104.1328125 6.21875 104.2578125 C6.21875 104.9178125 6.21875 105.5778125 6.21875 106.2578125 C6.98574219 106.46277344 7.75273438 106.66773438 8.54296875 106.87890625 C13.69768604 108.81260997 18.2764845 111.56407411 23.03125 114.3203125 C30.98446212 118.8880057 38.96621057 123.3402318 47.1652832 127.45336914 C50.45071696 129.13952671 52.12672728 130.11977843 54.21875 133.2578125 C54.03850742 135.9305989 53.56898 136.94492453 51.56323242 138.73681641 C45.36094773 142.64811697 39.00802289 146.19675631 32.53125 149.6328125 C24.06846636 154.12320886 24.06846636 154.12320886 15.75390625 158.87890625 C15.12121826 159.25547363 14.48853027 159.63204102 13.83666992 160.02001953 C12.22568813 160.99080587 10.62410997 161.97715145 9.0234375 162.96484375 C5.81332208 164.4447159 3.71443723 164.66877856 0.21875 164.2578125 C-1.78125 162.2578125 -1.78125 162.2578125 -1.9765625 159 C-1.95335937 157.72382813 -1.93015625 156.44765625 -1.90625 155.1328125 C-1.88820312 153.85148438 -1.87015625 152.57015625 -1.8515625 151.25 C-1.82835937 150.26257813 -1.80515625 149.27515625 -1.78125 148.2578125 C-2.93882813 148.28101563 -4.09640625 148.30421875 -5.2890625 148.328125 C-6.82811851 148.34689398 -8.36718155 148.36509296 -9.90625 148.3828125 C-11.04707031 148.40794922 -11.04707031 148.40794922 -12.2109375 148.43359375 C-21.91441578 148.51724442 -29.86019531 144.66485291 -37.0625 138.21484375 C-41.90318012 133.11226116 -44.73058466 127.96592115 -46.78125 121.2578125 C-46.95718689 120.71596817 -47.13312378 120.17412384 -47.31439209 119.61585999 C-47.99495812 116.1783965 -47.937207 112.75751237 -47.94238281 109.26733398 C-47.94734772 108.46511917 -47.95231262 107.66290436 -47.95742798 106.83638 C-47.97202355 104.18387997 -47.97884919 101.53143984 -47.984375 98.87890625 C-47.99013098 97.02767435 -47.99588866 95.17644246 -48.00164795 93.32521057 C-48.01215219 89.44068119 -48.01799785 85.55617245 -48.02148438 81.67163086 C-48.02695131 76.7178756 -48.05094311 71.76439767 -48.07945633 66.81072903 C-48.09817789 62.98347709 -48.10329347 59.15629049 -48.10482025 55.32899666 C-48.10782862 53.50432898 -48.11579507 51.67966194 -48.12900543 49.8550396 C-48.22860344 35.03396088 -47.48371955 22.70888158 -36.96484375 11.28515625 C-32.14826665 6.70211016 -27.07521597 4.26086954 -20.78125 2.2578125 C-19.85707275 1.91613037 -18.93289551 1.57444824 -17.98071289 1.22241211 C-12.13437548 -0.42588883 -6.02144563 -0.03349894 0 0 Z " fill="#030303" transform="translate(75.78125,147.7421875)"/>
<path d="M0 0 C0.86832962 -0.00817749 1.73665924 -0.01635498 2.63130188 -0.02478027 C5.51892396 -0.0496903 8.40649661 -0.06616675 11.29418945 -0.08056641 C12.7709764 -0.08855192 12.7709764 -0.08855192 14.27759743 -0.09669876 C19.49104663 -0.12345787 24.70447168 -0.14282174 29.91796875 -0.15722656 C35.3040497 -0.17385872 40.68951687 -0.21861672 46.07536602 -0.26959801 C50.21467286 -0.30326143 54.35383411 -0.3148032 58.49326515 -0.32045364 C60.47839853 -0.32717129 62.46352216 -0.34240666 64.44852257 -0.36634445 C67.23051143 -0.39797219 70.01084721 -0.39803611 72.79296875 -0.390625 C74.0206044 -0.415233 74.0206044 -0.415233 75.27304077 -0.44033813 C79.31540309 -0.39632905 81.97246216 -0.0352491 85.2303772 2.46932983 C88.47189892 6.0154582 88.47189892 6.0154582 88.48046875 9.35302734 C88.49615402 10.13734131 88.51183929 10.92165527 88.52799988 11.72973633 C88.51271744 12.5631958 88.497435 13.39665527 88.48168945 14.25537109 C88.48505814 15.12427979 88.48842682 15.99318848 88.49189758 16.88842773 C88.49159932 18.7207635 88.47640542 20.55314984 88.44726562 22.38525391 C88.40758709 25.18465943 88.42656255 27.97932509 88.45239258 30.77880859 C88.44483295 32.56268108 88.43387895 34.34654307 88.41918945 36.13037109 C88.4296656 37.3805603 88.4296656 37.3805603 88.44035339 38.65600586 C88.33603492 42.96484831 88.10900093 44.69689888 85.36376953 48.19677734 C80.84749133 51.60661118 76.74444461 51.33582023 71.31713867 51.32226562 C70.45999268 51.32401794 69.60284668 51.32577026 68.71972656 51.32757568 C65.88384991 51.33198055 63.0480355 51.32906151 60.2121582 51.32568359 C58.24585966 51.3263569 56.2795612 51.32732715 54.31326294 51.32858276 C50.19247648 51.33005778 46.07171168 51.32791099 41.95092773 51.32324219 C36.65659809 51.31753753 31.36231905 51.3208298 26.06799126 51.32681465 C22.00867325 51.33041916 17.94936734 51.32928232 13.89004898 51.32668686 C11.93711466 51.32601767 9.98417925 51.32684573 8.03124619 51.32916641 C5.30880548 51.33169193 2.58644813 51.32785412 -0.13598633 51.32226562 C-1.3578212 51.32530197 -1.3578212 51.32530197 -2.6043396 51.32839966 C-8.16576523 51.30713516 -8.16576523 51.30713516 -9.2800293 50.19287109 C-9.37842144 48.66352479 -9.40801468 47.12967544 -9.40942383 45.59716797 C-9.41257599 44.61945435 -9.41572815 43.64174072 -9.41897583 42.63439941 C-9.4169516 41.57088257 -9.41492737 40.50736572 -9.4128418 39.41162109 C-9.41379852 38.32780151 -9.41475525 37.24398193 -9.41574097 36.12731934 C-9.41642295 33.8306472 -9.41456741 31.53397315 -9.41040039 29.23730469 C-9.40505241 25.70812682 -9.4103448 22.17907622 -9.41674805 18.64990234 C-9.41608727 16.42464164 -9.41480611 14.19938102 -9.4128418 11.97412109 C-9.41486603 10.91060425 -9.41689026 9.8470874 -9.41897583 8.75134277 C-9.41582367 7.77362915 -9.41267151 6.79591553 -9.40942383 5.78857422 C-9.40862823 4.9233313 -9.40783264 4.05808838 -9.40701294 3.16662598 C-9.0986947 -1.62568122 -3.68991718 0.01897164 0 0 Z " fill="#5B82EF" transform="translate(200.280029296875,16.80712890625)"/>
<path d="M0 0 C0.84882248 -0.0049649 1.69764496 -0.00992981 2.57218933 -0.01504517 C5.3948954 -0.02971097 8.21754521 -0.03647746 11.0402832 -0.04199219 C12.99746198 -0.04774171 14.95464073 -0.05349947 16.91181946 -0.05926514 C21.02357242 -0.06978886 25.13530576 -0.07562197 29.24707031 -0.07910156 C34.51191479 -0.08457743 39.77649948 -0.10858026 45.04126263 -0.13707352 C49.08792369 -0.15571686 53.13452254 -0.16090649 57.18122292 -0.16243744 C59.12166572 -0.16546261 61.06210746 -0.17348658 63.00250816 -0.18662262 C65.72192332 -0.2037122 68.4407089 -0.20179532 71.16015625 -0.1953125 C71.95987854 -0.20452728 72.75960083 -0.21374207 73.58355713 -0.22323608 C78.40927245 -0.1872706 81.73499089 0.46906318 85.90356445 3.16113281 C88.26365262 6.70126506 88.13820089 8.17235236 88.09887695 12.36035156 C88.09243164 13.56884766 88.08598633 14.77734375 88.0793457 16.02246094 C88.06258789 17.28509766 88.04583008 18.54773438 88.02856445 19.84863281 C88.01954102 21.12287109 88.01051758 22.39710938 88.0012207 23.70996094 C87.97762087 26.86053908 87.94469639 30.01074264 87.90356445 33.16113281 C83.37241355 29.39986617 79.19172844 25.48533173 75.10595703 21.24731445 C63.11115451 8.57381403 63.11115451 8.57381403 46.81762695 4.10644531 C39.49625725 4.50642513 35.45723023 5.34795581 29.90356445 10.16113281 C29.24356445 10.16113281 28.58356445 10.16113281 27.90356445 10.16113281 C27.63543945 10.71800781 27.36731445 11.27488281 27.09106445 11.84863281 C25.90356445 14.16113281 25.90356445 14.16113281 24.34106445 16.66113281 C20.85896584 22.71695648 20.94640499 30.1825784 22.55200195 36.85644531 C24.51916438 42.35441209 27.16665301 46.00317617 31.51293945 49.88378906 C32.20129883 50.51607422 32.20129883 50.51607422 32.90356445 51.16113281 C32.90356445 51.49113281 32.90356445 51.82113281 32.90356445 52.16113281 C27.08284823 52.18577919 21.26216211 52.20396711 15.44140625 52.21606445 C13.45963004 52.22110549 11.47785757 52.22793819 9.49609375 52.23657227 C6.65404337 52.24864796 3.81204198 52.25436326 0.9699707 52.25878906 C-0.3675248 52.26653099 -0.3675248 52.26653099 -1.73204041 52.27442932 C-3.85384156 52.27462458 -5.97554334 52.22323311 -8.09643555 52.16113281 C-9.72398198 50.53358638 -9.22380632 48.71974958 -9.22583008 46.47363281 C-9.22898224 45.47589844 -9.2321344 44.47816406 -9.23538208 43.45019531 C-9.23335785 42.36480469 -9.23133362 41.27941406 -9.22924805 40.16113281 C-9.23020477 39.05511719 -9.2311615 37.94910156 -9.23214722 36.80957031 C-9.23282921 34.46581974 -9.23097359 32.12206728 -9.22680664 29.77832031 C-9.22145868 26.17671494 -9.22675101 22.57523428 -9.2331543 18.97363281 C-9.23249352 16.7027992 -9.23121236 14.43196567 -9.22924805 12.16113281 C-9.23127228 11.07574219 -9.23329651 9.99035156 -9.23538208 8.87207031 C-9.23222992 7.87433594 -9.22907776 6.87660156 -9.22583008 5.84863281 C-9.22503448 4.965625 -9.22423889 4.08261719 -9.22341919 3.17285156 C-8.92053574 -1.62553273 -3.70550441 0.00511485 0 0 Z " fill="#627C24" transform="translate(200.096435546875,134.8388671875)"/>
<path d="M0 0 C1.3981702 0.00934728 2.796357 0.01645432 4.19454956 0.0214386 C7.84125485 0.04035874 11.4869345 0.08932415 15.13323975 0.1449585 C18.86733126 0.19647939 22.60159157 0.21902201 26.3359375 0.24414062 C33.63848401 0.29746257 40.94019104 0.38258651 48.2421875 0.48828125 C48.4296875 3.36328125 48.4296875 3.36328125 48.2421875 6.48828125 C44.84790604 8.75113556 43.65422627 8.74259471 39.67260742 8.75952148 C38.53099655 8.7697081 37.38938568 8.77989471 36.21318054 8.79039001 C34.36162102 8.79360008 34.36162102 8.79360008 32.47265625 8.796875 C29.86653424 8.82203699 27.2604145 8.84743498 24.65429688 8.87304688 C20.5396629 8.90381351 16.4250078 8.9260096 12.31030273 8.94458008 C8.34341022 8.96356066 4.37688036 9.0056788 0.41015625 9.046875 C-1.43229424 9.04704872 -1.43229424 9.04704872 -3.31196594 9.04722595 C-10.89923991 9.13514865 -15.61914661 9.77761525 -21.5078125 14.86328125 C-25.70936 19.76508667 -26.05597183 24.27014977 -26.04833984 30.5480957 C-26.05505707 31.34552185 -26.06177429 32.142948 -26.06869507 32.96453857 C-26.08765005 35.59361043 -26.09159812 38.22242661 -26.09375 40.8515625 C-26.10018014 42.68613285 -26.10690867 44.52070217 -26.11392212 46.35527039 C-26.12588897 50.19935482 -26.1296036 54.04334943 -26.12841797 57.88745117 C-26.12821492 62.80011381 -26.15550468 67.71219702 -26.18996239 72.62472248 C-26.21226097 76.41412472 -26.21625459 80.20338823 -26.21519852 83.99284935 C-26.21755049 85.80325503 -26.2263512 87.61366476 -26.24186325 89.42400551 C-26.26158161 91.96317066 -26.2556627 94.50109571 -26.24365234 97.0402832 C-26.25489136 97.77977707 -26.26613037 98.51927094 -26.27770996 99.28117371 C-26.20372983 105.47321269 -24.27707679 110.75609619 -20.0390625 115.35229492 C-14.06356365 119.09762884 -8.67176266 119.08201201 -1.7578125 118.80078125 C-0.69691406 118.77822266 0.36398438 118.75566406 1.45703125 118.73242188 C4.05358449 118.67394095 6.64711616 118.59204579 9.2421875 118.48828125 C10.39033747 116.19198131 10.54988559 114.41130039 10.8046875 111.86328125 C10.88847656 111.04601562 10.97226563 110.22875 11.05859375 109.38671875 C11.14947266 108.44699219 11.14947266 108.44699219 11.2421875 107.48828125 C34.15680132 118.68387303 34.15680132 118.68387303 39.2421875 122.48828125 C39.2421875 123.47828125 39.2421875 124.46828125 39.2421875 125.48828125 C19.81617021 136.39517393 19.81617021 136.39517393 11.2421875 140.48828125 C11.20480469 139.87339844 11.16742188 139.25851562 11.12890625 138.625 C11.06316406 137.81675781 10.99742188 137.00851562 10.9296875 136.17578125 C10.87167969 135.37527344 10.81367187 134.57476562 10.75390625 133.75 C10.13370686 131.00881339 9.4407395 130.20667923 7.2421875 128.48828125 C4.99229596 128.06540401 4.99229596 128.06540401 2.48828125 128.15234375 C1.5557251 128.14323975 0.62316895 128.13413574 -0.33764648 128.12475586 C-1.32192627 128.12096924 -2.30620605 128.11718262 -3.3203125 128.11328125 C-14.00401188 127.83156448 -21.08361177 126.59943693 -28.6953125 118.67578125 C-33.96427073 112.60418073 -35.20822803 105.66415297 -35.16186523 97.92016602 C-35.16872849 97.10440094 -35.17559174 96.28863586 -35.18266296 95.44815063 C-35.20083243 92.77514809 -35.19710772 90.10273802 -35.19140625 87.4296875 C-35.19597273 85.55695914 -35.20127969 83.68423246 -35.20729065 81.81150818 C-35.21620238 77.8953468 -35.21382069 73.97938957 -35.20385742 70.06323242 C-35.19236937 65.06216786 -35.21258665 60.06180958 -35.24177456 55.06083775 C-35.2601821 51.19589312 -35.25983505 47.33111634 -35.25413704 43.46613884 C-35.25398439 41.62307685 -35.25998207 39.78000308 -35.27242851 37.93698311 C-35.38012184 19.37777061 -35.38012184 19.37777061 -30.7578125 12.48828125 C-30.35030258 11.86365494 -29.94279266 11.23902863 -29.52293396 10.59547424 C-22.03808043 0.59575987 -11.68069045 -0.23192279 0 0 Z " fill="#627C24" transform="translate(72.7578125,158.51171875)"/>
<path d="M0 0 C7.91099447 -0.11641113 15.8216246 -0.20497411 23.73326683 -0.25906086 C27.40793726 -0.28503438 31.08201705 -0.32020304 34.75634766 -0.37719727 C38.30960425 -0.43196167 41.86229673 -0.46151236 45.41594315 -0.47438622 C47.41553628 -0.48797276 49.41490589 -0.52693404 51.41415405 -0.56648254 C60.37466125 -0.56921039 67.42103634 0.74233219 74.14047241 6.99028015 C80.2399166 13.3873681 82.4595175 19.59794992 82.38818359 28.36279297 C82.39344055 29.16865845 82.39869751 29.97452393 82.40411377 30.80480957 C82.41724377 33.45080341 82.40859905 36.09618825 82.3984375 38.7421875 C82.40046064 40.5939241 82.40337409 42.44565992 82.40713501 44.2973938 C82.41154923 48.17246103 82.40515788 52.0473203 82.39111328 55.92236328 C82.37404594 60.87067216 82.38385278 65.81849192 82.40183067 70.76678276 C82.4127134 74.58968739 82.40920123 78.41247766 82.4014473 82.23538589 C82.39945644 84.0589008 82.4018651 85.88242633 82.40888596 87.7059288 C82.416572 90.2637015 82.40479627 92.82070222 82.38818359 95.37841797 C82.39425629 96.12052521 82.40032898 96.86263245 82.40658569 97.62722778 C82.32014623 104.87229545 80.3665215 112.11468842 76 118 C75.34 118 74.68 118 74 118 C74 118.66 74 119.32 74 120 C72.4609375 121.21875 72.4609375 121.21875 70.375 122.5 C69.70210938 122.9228125 69.02921875 123.345625 68.3359375 123.78125 C61.71047196 127.23801463 55.46040131 127.40819011 48.125 127.625 C47.05507813 127.66367188 45.98515625 127.70234375 44.8828125 127.7421875 C42.25547845 127.83602086 39.62776348 127.91908022 37 128 C36.67 131.63 36.34 135.26 36 139 C32.66945881 137.66778353 29.67064833 136.37906587 26.53125 134.72265625 C25.71269531 134.29146484 24.89414062 133.86027344 24.05078125 133.41601562 C22.78814453 132.74602539 22.78814453 132.74602539 21.5 132.0625 C20.65824219 131.61970703 19.81648438 131.17691406 18.94921875 130.72070312 C9.57622485 125.76851501 9.57622485 125.76851501 7 124 C7 123.34 7 122.68 7 122 C13.68848567 118.15290021 20.3816731 114.31284825 27.125 110.5625 C28.39730469 109.85287109 28.39730469 109.85287109 29.6953125 109.12890625 C32 108 32 108 36 107 C36.495 112.445 36.495 112.445 37 118 C40.66747276 118.1085765 44.33168806 118.18759858 48 118.25 C49.02996094 118.28351563 50.05992187 118.31703125 51.12109375 118.3515625 C57.56214867 118.43361416 62.71304442 117.93369275 68 114 C72.46071265 108.39551487 73.15097268 103.99899856 73.16113281 97.04370117 C73.16609772 96.23360092 73.17106262 95.42350067 73.17617798 94.58885193 C73.19079146 91.90688224 73.19760046 89.22497172 73.203125 86.54296875 C73.20887739 84.67832945 73.21463511 82.81369017 73.22039795 80.9490509 C73.2309058 77.03756434 73.23674979 73.12609831 73.24023438 69.21459961 C73.24571678 64.2076378 73.26974031 59.20094824 73.29820633 54.19407177 C73.31685003 50.34128532 73.32203925 46.48856421 73.32357025 42.63573647 C73.3265937 40.79018987 73.33461185 38.94464434 73.34775543 37.09914207 C73.36485119 34.5140462 73.3629271 31.92961222 73.35644531 29.34448242 C73.3656601 28.58530518 73.37487488 27.82612793 73.3843689 27.04394531 C73.34701747 22.27738279 72.52802331 19.04253317 70 15 C64.69864884 9.92914237 60.45172919 7.77140403 53.13989258 7.69702148 C51.985522 7.68037949 50.83115143 7.66373749 49.64179993 7.64659119 C48.40520126 7.63817703 47.1686026 7.62976288 45.89453125 7.62109375 C44.61897873 7.60409927 43.34342621 7.5871048 42.02922058 7.56959534 C38.64836881 7.52549969 35.2676343 7.48916436 31.88665771 7.45739746 C27.1122145 7.41159608 22.33791485 7.35580339 17.56364441 7.29469299 C15.02294407 7.26267627 12.48217289 7.23580499 9.94136047 7.21446228 C8.79644638 7.20097244 7.65153229 7.1874826 6.47192383 7.17358398 C4.95566154 7.15931618 4.95566154 7.15931618 3.4087677 7.14476013 C1 7 1 7 -1 6 C-0.67 4.02 -0.34 2.04 0 0 Z " fill="#5B81ED" transform="translate(320,39)"/>
<path d="M0 0 C7.92 0 15.84 0 24 0 C24 16.5 24 33 24 50 C2 50 2 50 -3 47 C-5.58097834 43.12853249 -5.34176303 39.84690081 -5.37109375 35.3515625 C-5.38012222 34.50201996 -5.3891507 33.65247742 -5.39845276 32.77719116 C-5.41295742 30.98007736 -5.42184254 29.18291072 -5.42553711 27.38574219 C-5.43742777 24.64166863 -5.48660312 21.8998485 -5.53710938 19.15625 C-5.54657457 17.40886513 -5.55380914 15.66146646 -5.55859375 13.9140625 C-5.57812607 13.0962027 -5.59765839 12.2783429 -5.61778259 11.43569946 C-5.61170486 10.66495087 -5.60562714 9.89420227 -5.59936523 9.10009766 C-5.60443588 8.42741852 -5.60950653 7.75473938 -5.61473083 7.06167603 C-5 5 -5 5 0 0 Z " fill="#E8E9E9" transform="translate(157,255)"/>
<path d="M0 0 C0 16.5 0 33 0 50 C-7.92 50 -15.84 50 -24 50 C-29.62613747 44.37386253 -29.62613747 44.37386253 -29.63110352 40.93164062 C-29.64363663 40.16734741 -29.65616974 39.4030542 -29.66908264 38.61560059 C-29.65582443 37.80401489 -29.64256622 36.9924292 -29.62890625 36.15625 C-29.63131821 35.30953735 -29.63373016 34.46282471 -29.63621521 33.5904541 C-29.63523831 31.80520939 -29.62188197 30.0199338 -29.59692383 28.23486328 C-29.5626056 25.5083892 -29.57627335 22.78515688 -29.59570312 20.05859375 C-29.58880433 18.32029876 -29.57913165 16.5820121 -29.56640625 14.84375 C-29.57136612 14.03216431 -29.57632599 13.22057861 -29.58143616 12.38439941 C-29.49991528 8.45003852 -29.26742384 6.43273976 -27.15209961 3.00976562 C-19.91796908 -3.74591929 -9.76144686 0 0 0 Z " fill="#E9E9E9" transform="translate(181,17)"/>
<path d="M0 0 C0 16.5 0 33 0 50 C-23 50 -23 50 -29 45 C-29.76190186 42.91381836 -29.76190186 42.91381836 -29.77636719 40.83984375 C-29.79528015 40.05552979 -29.81419312 39.27121582 -29.8336792 38.46313477 C-29.82153381 37.62967529 -29.80938843 36.79621582 -29.796875 35.9375 C-29.80261536 35.06859131 -29.80835571 34.19968262 -29.81427002 33.30444336 C-29.81834272 31.47214136 -29.80734194 29.63975157 -29.78222656 27.80761719 C-29.75008933 25.00778239 -29.78193409 22.21371843 -29.8203125 19.4140625 C-29.81634746 17.63019563 -29.80865971 15.84633235 -29.796875 14.0625 C-29.80902039 13.22904053 -29.82116577 12.39558105 -29.8336792 11.53686523 C-29.81476624 10.75255127 -29.79585327 9.9682373 -29.77636719 9.16015625 C-29.77159363 8.47574463 -29.76682007 7.79133301 -29.76190186 7.08618164 C-25.27791656 -5.19152544 -9.37095479 0 0 0 Z " fill="#EAEAEA" transform="translate(181,136)"/>
<path d="M0 0 C4.62 0 9.24 0 14 0 C12.576875 2.2584375 12.576875 2.2584375 11.125 4.5625 C7.29363238 10.98726975 4.73992863 17.39803097 6 25 C8.64055376 33.45272236 14.77125371 39.73225242 20.55078125 46.19140625 C23 49 23 49 23 50 C15.41 50 7.82 50 0 50 C0 33.5 0 17 0 0 Z " fill="#E5E5E5" transform="translate(192,255)"/>
<path d="M0 0 C2.97 0 5.94 0 9 0 C9 2.97 9 5.94 9 9 C2.25 3.375 2.25 3.375 0 0 Z " fill="#ECEEEF" transform="translate(241,255)"/>
</svg>
