<?xml version="1.0" encoding="UTF-8"?>
<svg version="1.1" xmlns="http://www.w3.org/2000/svg" width="305" height="311">
<path d="M0 0 C1.23687309 -0.02409439 1.23687309 -0.02409439 2.49873352 -0.04867554 C6.27160816 -0.09315418 10.04430726 -0.13419153 13.81738281 -0.15722656 C15.80675964 -0.17378441 17.79607702 -0.20107219 19.78515625 -0.23925781 C22.65420372 -0.29405154 25.52185704 -0.31590407 28.39135742 -0.33056641 C29.27797562 -0.35323578 30.16459381 -0.37590515 31.07807922 -0.39926147 C35.39890447 -0.38449656 37.43352847 -0.19853435 41.06665039 2.32592773 C43.36536649 5.7402742 43.58189339 7.50303428 43.48510742 11.58740234 C43.46899414 12.78945313 43.45288086 13.99150391 43.4362793 15.22998047 C43.39438477 16.47585937 43.35249023 17.72173828 43.30932617 19.00537109 C43.27548828 20.90319336 43.27548828 20.90319336 43.2409668 22.83935547 C43.18211695 25.95839728 43.09993987 29.07503012 42.99682617 32.19287109 C43.75431152 32.36302734 44.51179687 32.53318359 45.29223633 32.70849609 C52.00785746 34.28987925 58.13211302 36.26559826 64.37182617 39.19287109 C65.12592773 39.53576172 65.8800293 39.87865234 66.65698242 40.23193359 C70.8146121 42.13297893 74.92046324 44.12233754 78.99682617 46.19287109 C79.76760498 45.38281616 79.76760498 45.38281616 80.55395508 44.55639648 C82.89662675 42.10958849 85.25879497 39.68251554 87.62182617 37.25537109 C88.43006836 36.40523437 89.23831055 35.55509766 90.07104492 34.67919922 C90.86381836 33.8703125 91.6565918 33.06142578 92.47338867 32.22802734 C93.19606934 31.4791626 93.91875 30.73029785 94.66333008 29.95874023 C97.48645047 27.82234875 99.49166108 27.42398416 102.99682617 27.19287109 C106.60735446 28.58153582 108.60977916 30.82713824 111.03979492 33.71630859 C116.15790021 39.63560167 121.84485646 44.98628174 127.49682617 50.39013672 C128.31924805 51.19515625 129.14166992 52.00017578 129.98901367 52.82958984 C131.10832275 53.90793091 131.10832275 53.90793091 132.25024414 55.00805664 C134.28029707 57.54746728 134.91749052 58.94354511 134.99682617 62.19287109 C133.30875762 65.79731115 131.02328447 68.40683613 128.20385742 71.18115234 C127.49165039 71.88691406 126.77944336 72.59267578 126.0456543 73.31982422 C125.30766602 74.04105469 124.56967773 74.76228516 123.80932617 75.50537109 C123.05973633 76.2459375 122.31014648 76.98650391 121.5378418 77.74951172 C119.69529335 79.56858821 117.84822955 81.38281498 115.99682617 83.19287109 C116.24327881 83.68988525 116.48973145 84.18689941 116.74365234 84.69897461 C129.99682617 111.5919376 129.99682617 111.5919376 129.99682617 119.19287109 C130.78855225 119.16668701 131.58027832 119.14050293 132.39599609 119.11352539 C135.99190335 119.00942987 139.58749348 118.94450209 143.18432617 118.88037109 C144.43020508 118.83847656 145.67608398 118.79658203 146.9597168 118.75341797 C148.16176758 118.73730469 149.36381836 118.72119141 150.60229492 118.70458984 C152.25974731 118.66531372 152.25974731 118.66531372 153.95068359 118.62524414 C158.18705016 119.41466085 159.53711948 120.66527803 161.99682617 124.19287109 C162.68612221 127.38262694 162.65115714 130.47513051 162.59057617 133.72802734 C162.59061646 134.6436998 162.59065674 135.55937225 162.59069824 136.50279236 C162.58534916 138.43349086 162.56779259 140.36418925 162.53881836 142.29467773 C162.49691584 145.24904898 162.49775546 148.20114301 162.50463867 151.15576172 C162.49414727 153.03403276 162.48120944 154.91229206 162.46557617 156.79052734 C162.46537476 157.67289566 162.46517334 158.55526398 162.46496582 159.46437073 C162.34785283 165.53226907 162.34785283 165.53226907 160.6550293 168.71801758 C157.47609159 171.54545613 154.08030398 171.37050844 150.01635742 171.50927734 C148.27128906 171.57211914 148.27128906 171.57211914 146.4909668 171.63623047 C145.27602539 171.67554688 144.06108398 171.71486328 142.80932617 171.75537109 C141.5827832 171.79855469 140.35624023 171.84173828 139.0925293 171.88623047 C136.06074236 171.992402 133.02887302 172.09445062 129.99682617 172.19287109 C129.72870117 173.16224609 129.46057617 174.13162109 129.18432617 175.13037109 C126.54620057 184.27978665 123.10690153 192.54186329 118.66870117 200.96240234 C116.94629208 204.08581466 116.94629208 204.08581466 115.99682617 207.19287109 C116.53686279 207.70672363 117.07689941 208.22057617 117.63330078 208.75 C120.08010877 211.09267168 122.50718172 213.45483989 124.93432617 215.81787109 C126.20953125 217.03023438 126.20953125 217.03023438 127.51049805 218.26708984 C128.31938477 219.05986328 129.12827148 219.85263672 129.96166992 220.66943359 C130.71053467 221.39211426 131.45939941 222.11479492 132.23095703 222.859375 C134.36734851 225.68249539 134.76571311 227.687706 134.99682617 231.19287109 C133.60816145 234.80339938 131.36255902 236.80582409 128.47338867 239.23583984 C122.5540956 244.35394513 117.20341552 250.04090138 111.79956055 255.69287109 C110.99454102 256.51529297 110.18952148 257.33771484 109.36010742 258.18505859 C108.28176636 259.30436768 108.28176636 259.30436768 107.18164062 260.44628906 C104.64222999 262.47634199 103.24615215 263.11353544 99.99682617 263.19287109 C96.39238611 261.50480254 93.78286114 259.21932939 91.00854492 256.39990234 C90.3027832 255.68769531 89.59702148 254.97548828 88.86987305 254.24169922 C87.78802734 253.1347168 87.78802734 253.1347168 86.68432617 252.00537109 C85.94375977 251.25578125 85.20319336 250.50619141 84.44018555 249.73388672 C82.62110905 247.89133827 80.80688228 246.04427447 78.99682617 244.19287109 C78.25916016 244.56255005 78.25916016 244.56255005 77.5065918 244.93969727 C66.55471271 250.38640129 55.79881865 254.95342764 43.99682617 258.19287109 C43.99271729 258.98459717 43.9886084 259.77632324 43.984375 260.59204102 C43.95142463 264.18890361 43.88077575 267.78407584 43.80932617 271.38037109 C43.800625 273.24918945 43.800625 273.24918945 43.79174805 275.15576172 C43.76274414 276.3578125 43.73374023 277.55986328 43.70385742 278.79833984 C43.68814697 279.90330811 43.67243652 281.00827637 43.65625 282.14672852 C42.74990147 286.33351514 41.50347366 287.73681519 37.99682617 290.19287109 C34.80717659 290.88243188 31.71449536 290.84720074 28.46166992 290.78662109 C27.08816124 290.78668152 27.08816124 290.78668152 25.68690491 290.78674316 C23.75620641 290.78139409 21.82550802 290.76383751 19.89501953 290.73486328 C16.94064828 290.69296076 13.98855426 290.69380038 11.03393555 290.70068359 C9.15566451 290.69019219 7.2774052 290.67725436 5.39916992 290.66162109 C4.51680161 290.66141968 3.63443329 290.66121826 2.72532654 290.66101074 C-3.34257181 290.54389775 -3.34257181 290.54389775 -6.52832031 288.85107422 C-9.35575887 285.67213652 -9.18081117 282.2763489 -9.31958008 278.21240234 C-9.36147461 277.04902344 -9.40336914 275.88564453 -9.4465332 274.68701172 C-9.48584961 273.47207031 -9.52516602 272.25712891 -9.56567383 271.00537109 C-9.60885742 269.77882813 -9.65204102 268.55228516 -9.6965332 267.28857422 C-9.80270473 264.25678728 -9.90475335 261.22491795 -10.00317383 258.19287109 C-10.97254883 257.92474609 -11.94192383 257.65662109 -12.94067383 257.38037109 C-22.09008938 254.74224549 -30.35216603 251.30294645 -38.77270508 246.86474609 C-41.8961174 245.142337 -41.8961174 245.142337 -45.00317383 244.19287109 C-45.51702637 244.73290771 -46.03087891 245.27294434 -46.56030273 245.8293457 C-48.90297441 248.2761537 -51.26514263 250.70322664 -53.62817383 253.13037109 C-54.43641602 253.98050781 -55.2446582 254.83064453 -56.07739258 255.70654297 C-57.26655273 256.91987305 -57.26655273 256.91987305 -58.47973633 258.15771484 C-59.20241699 258.90657959 -59.92509766 259.65544434 -60.66967773 260.42700195 C-63.53403043 262.59459591 -65.42479043 263.09791441 -69.00317383 263.19287109 C-70.91943359 262.16577148 -70.91943359 262.16577148 -72.63208008 260.47802734 C-73.30899902 259.82850098 -73.98591797 259.17897461 -74.68334961 258.50976562 C-75.4488916 257.74519043 -76.21443359 256.98061523 -77.00317383 256.19287109 C-78.42293061 254.84251688 -79.84271227 253.49218867 -81.26303101 252.14242554 C-83.32142613 250.17087833 -85.3511913 248.17124852 -87.37841797 246.16772461 C-88.42719757 245.13566254 -89.48133352 244.10901773 -90.54052734 243.08764648 C-92.09117417 241.591776 -93.62470139 240.08009174 -95.15551758 238.56396484 C-96.51664673 237.2325647 -96.51664673 237.2325647 -97.90527344 235.87426758 C-100.26588488 232.85709133 -100.8208164 230.98743632 -101.00317383 227.19287109 C-99.99145508 225.27880859 -99.99145508 225.27880859 -98.31567383 223.56787109 C-97.68145508 222.90529297 -97.04723633 222.24271484 -96.39379883 221.56005859 C-95.60489258 220.77888672 -94.81598633 219.99771484 -94.00317383 219.19287109 C-92.95552911 218.13373608 -91.90870822 217.07378576 -90.86254883 216.01318359 C-87.92977325 213.05212877 -84.9719669 210.11779037 -82.00317383 207.19287109 C-82.24962646 206.70109375 -82.4960791 206.20931641 -82.75 205.70263672 C-88.19670402 194.75075763 -92.76373038 183.99486357 -96.00317383 172.19287109 C-96.76460693 172.17828857 -97.52604004 172.16370605 -98.31054688 172.14868164 C-101.77109271 172.07406568 -105.23068828 171.97744851 -108.69067383 171.88037109 C-110.48794922 171.8465332 -110.48794922 171.8465332 -112.3215332 171.81201172 C-113.4784668 171.7765625 -114.63540039 171.74111328 -115.82739258 171.70458984 C-116.89046631 171.67840576 -117.95354004 171.65222168 -119.04882812 171.62524414 C-122.37529025 171.13841128 -124.30434825 170.16817529 -127.00317383 168.19287109 C-128.12554664 165.94812547 -128.15195104 164.6809671 -128.19604492 162.18969727 C-128.21210785 161.3651152 -128.22817078 160.54053314 -128.24472046 159.69096375 C-128.28919911 155.91808911 -128.33023646 152.14539 -128.35327148 148.37231445 C-128.36982933 146.38293763 -128.39711711 144.39362025 -128.43530273 142.40454102 C-128.49009647 139.53549355 -128.51194899 136.66784022 -128.52661133 133.79833984 C-128.5492807 132.91172165 -128.57195007 132.02510345 -128.5953064 131.11161804 C-128.58055475 126.79467618 -128.39979342 124.76113068 -125.87011719 121.13671875 C-122.50056721 118.85209328 -120.65210661 118.54332985 -116.60864258 118.48583984 C-115.4065918 118.45683594 -114.20454102 118.42783203 -112.96606445 118.39794922 C-111.09724609 118.38924805 -111.09724609 118.38924805 -109.19067383 118.38037109 C-107.92545898 118.35523437 -106.66024414 118.33009766 -105.35668945 118.30419922 C-102.23853839 118.24536618 -99.12179015 118.20905604 -96.00317383 118.19287109 C-95.73504883 117.22349609 -95.46692383 116.25412109 -95.19067383 115.25537109 C-92.55254822 106.10595554 -89.11324919 97.84387889 -84.67504883 89.42333984 C-82.95263974 86.29992753 -82.95263974 86.29992753 -82.00317383 83.19287109 C-82.81322876 82.42209229 -82.81322876 82.42209229 -83.63964844 81.63574219 C-86.08645643 79.29307051 -88.51352938 76.93090229 -90.94067383 74.56787109 C-91.79081055 73.75962891 -92.64094727 72.95138672 -93.5168457 72.11865234 C-94.32573242 71.32587891 -95.13461914 70.53310547 -95.96801758 69.71630859 C-96.71688232 68.99362793 -97.46574707 68.27094727 -98.23730469 67.52636719 C-100.40489865 64.66201449 -100.90821714 62.77125449 -101.00317383 59.19287109 C-99.97607422 57.27661133 -99.97607422 57.27661133 -98.28833008 55.56396484 C-97.63880371 54.8870459 -96.98927734 54.21012695 -96.32006836 53.51269531 C-95.55549316 52.74715332 -94.79091797 51.98161133 -94.00317383 51.19287109 C-92.65281961 49.77311431 -91.3024914 48.35333265 -89.95272827 46.93301392 C-87.98118107 44.87461879 -85.98155125 42.84485362 -83.97802734 40.81762695 C-82.94596528 39.76884735 -81.91932046 38.7147114 -80.89794922 37.65551758 C-79.40207874 36.10487075 -77.89039448 34.57134353 -76.37426758 33.04052734 C-75.48666748 32.13310791 -74.59906738 31.22568848 -73.68457031 30.29077148 C-70.66739406 27.93016004 -68.79773905 27.37522852 -65.00317383 27.19287109 C-63.08911133 28.20458984 -63.08911133 28.20458984 -61.37817383 29.88037109 C-60.7155957 30.51458984 -60.05301758 31.14880859 -59.37036133 31.80224609 C-58.58918945 32.59115234 -57.80801758 33.38005859 -57.00317383 34.19287109 C-55.94403881 35.24051581 -54.8840885 36.2873367 -53.82348633 37.33349609 C-50.86243151 40.26627167 -47.92809311 43.22407803 -45.00317383 46.19287109 C-44.26550781 45.82319214 -44.26550781 45.82319214 -43.51293945 45.44604492 C-32.56106037 39.9993409 -21.80516631 35.43231455 -10.00317383 32.19287109 C-9.98859131 31.43143799 -9.97400879 30.67000488 -9.95898438 29.88549805 C-9.88436842 26.42495222 -9.78775124 22.96535664 -9.69067383 19.50537109 C-9.66811523 18.3071875 -9.64555664 17.10900391 -9.62231445 15.87451172 C-9.56914062 14.13911133 -9.56914062 14.13911133 -9.51489258 12.36865234 C-9.4887085 11.30557861 -9.46252441 10.24250488 -9.43554688 9.1472168 C-8.94871402 5.82075467 -7.97847802 3.89169667 -6.00317383 1.19287109 C-3.7584282 0.07049828 -2.49126984 0.04409388 0 0 Z M-17.00317383 115.19287109 C-24.56012797 125.20811152 -29.17878626 136.45350726 -28.00317383 149.19287109 C-26.29193095 158.94830291 -23.02956393 168.92419168 -16.00317383 176.19287109 C-15.34317383 176.19287109 -14.68317383 176.19287109 -14.00317383 176.19287109 C-14.00317383 176.85287109 -14.00317383 177.51287109 -14.00317383 178.19287109 C-4.18508099 186.83960796 7.06326543 190.30368496 19.99682617 190.19287109 C30.38990695 189.52280964 40.24606813 185.15446105 47.99682617 178.19287109 C47.99682617 177.53287109 47.99682617 176.87287109 47.99682617 176.19287109 C48.65682617 176.19287109 49.31682617 176.19287109 49.99682617 176.19287109 C57.96905852 167.14065653 62.4191204 155.59922367 62.21166992 143.52099609 C61.08348179 131.29553926 56.16563281 119.49994779 46.99682617 111.19287109 C40.79029151 106.50975857 34.5330622 103.1193118 26.99682617 101.19287109 C26.19245117 100.96599609 25.38807617 100.73912109 24.55932617 100.50537109 C9.24230872 98.63744214 -6.49428213 103.5938454 -17.00317383 115.19287109 Z " fill="#3C4B64" transform="translate(136.003173828125,5.80712890625)"/>
<path d="M0 0 C15.36342135 12.52085 26.55170908 28.11922683 30 48 C31.63087017 71.18984907 27.88341753 92.02877303 13.125 110.5 C2.50677024 122.4616948 -10.56349473 130.78040584 -26 135 C-26.7734375 135.22558594 -27.546875 135.45117188 -28.34375 135.68359375 C-40.67148505 138.74441838 -54.003932 137.77424296 -66 134 C-66.80050781 133.81824219 -67.60101563 133.63648438 -68.42578125 133.44921875 C-81.75536603 130.24226464 -96.33831655 120.32596684 -104 109 C-104 108.34 -104 107.68 -104 107 C-104.66 107 -105.32 107 -106 107 C-107.5764389 104.79968084 -108.99179493 102.63142742 -110.375 100.3125 C-110.77984619 99.63493652 -111.18469238 98.95737305 -111.60180664 98.25927734 C-115.15695047 92.09837059 -117.3124716 85.90861074 -119 79 C-119.22300781 78.28199219 -119.44601563 77.56398438 -119.67578125 76.82421875 C-123.50306141 63.41572022 -121.12056239 48.99121753 -117 36 C-116.71125 35.07703125 -116.4225 34.1540625 -116.125 33.203125 C-109.80554126 15.48607103 -95.49211815 1.42133314 -79.1875 -7.3125 C-53.31486116 -19.5679605 -23.08676946 -17.11782758 0 0 Z M-79 31 C-86.55695414 41.01524043 -91.17561243 52.26063617 -90 65 C-88.28875713 74.75543182 -85.0263901 84.73132058 -78 92 C-77.34 92 -76.68 92 -76 92 C-76 92.66 -76 93.32 -76 94 C-66.18190716 102.64673686 -54.93356074 106.11081386 -42 106 C-31.60691922 105.32993855 -21.75075804 100.96158995 -14 94 C-14 93.34 -14 92.68 -14 92 C-13.34 92 -12.68 92 -12 92 C-4.02776765 82.94778544 0.42229422 71.40635258 0.21484375 59.328125 C-0.91334438 47.10266816 -5.83119336 35.30707669 -15 27 C-21.20653466 22.31688748 -27.46376397 18.9264407 -35 17 C-35.804375 16.773125 -36.60875 16.54625 -37.4375 16.3125 C-52.75451745 14.44457104 -68.4911083 19.40097431 -79 31 Z " fill="#5A82EE" transform="translate(198,90)"/>
<path d="M0 0 C4.60898726 2.08308335 7.64574224 5.27799251 11.1875 8.8125 C12.14946289 9.73772461 12.14946289 9.73772461 13.13085938 10.68164062 C15.69754326 13.23206252 17.69676289 15.28180684 19.11328125 18.63671875 C18.88401464 23.41969455 15.4809108 26.76678377 12.20703125 29.98828125 C11.49482422 30.69404297 10.78261719 31.39980469 10.04882812 32.12695312 C9.31083984 32.84818359 8.57285156 33.56941406 7.8125 34.3125 C7.06291016 35.05306641 6.31332031 35.79363281 5.54101562 36.55664062 C3.69846718 38.37571712 1.85140338 40.18994389 0 42 C-3.03995557 39.037859 -5.82977044 36.0832087 -8.375 32.6875 C-11.73423293 28.28727401 -15.30579367 24.12089278 -19 20 C-13.17371096 12.84198775 -6.5617015 6.47408234 0 0 Z " fill="#4C5C75" transform="translate(252,47)"/>
<path d="M0 0 C2.9564068 2.88124392 5.69551265 5.72361438 8.125 9.0625 C8.60195313 9.71347656 9.07890625 10.36445313 9.5703125 11.03515625 C10.04210937 11.68355469 10.51390625 12.33195313 11 13 C12.485 14.98 12.485 14.98 14 17 C7.4 23.6 0.8 30.2 -6 37 C-14.0862069 30.06896552 -14.0862069 30.06896552 -16.9375 26.875 C-17.81728516 25.91207031 -17.81728516 25.91207031 -18.71484375 24.9296875 C-20 23 -20 23 -20 19 C-18.671875 17.5 -18.671875 17.5 -16.75 16 C-12.76595292 12.7253426 -9.12418051 9.22324494 -5.5 5.5625 C-4.95956055 5.01787109 -4.41912109 4.47324219 -3.86230469 3.91210938 C-2.57277694 2.61014245 -1.28608076 1.30537197 0 0 Z " fill="#2A3750" transform="translate(55,214)"/>
</svg>
